<svg width="1442" height="656" viewBox="0 0 1442 656" fill="none" xmlns="http://www.w3.org/2000/svg">
<g clip-path="url(#clip0_101_8)">
<rect width="1442" height="656" fill="#DBD2C5"/>
<path d="M575.091 226.62C575.091 326.198 423.622 406.922 236.775 406.922C53.1038 413.953 -58 326.198 -58 226.62C-58 127.041 49.9286 46.3171 236.775 46.3171C423.622 46.3171 575.091 127.041 575.091 226.62Z" fill="#F6B08C" fill-opacity="0.5"/>
<path d="M807.423 664.302C807.423 763.88 655.954 844.605 469.107 844.605C285.435 851.636 174.332 763.88 174.332 664.302C174.332 564.724 282.26 484 469.107 484C655.954 484 807.423 564.724 807.423 664.302Z" fill="#F6B08C" fill-opacity="0.5"/>
<path d="M1371.79 337.628C1353.46 471.359 1222.69 547.187 1038.76 547.187C857.966 555.359 748.601 453.364 748.601 337.628C748.601 221.891 854.841 128.069 1038.76 128.069C1392.1 128.069 1371.79 221.891 1371.79 337.628Z" fill="#F6B08C" fill-opacity="0.5"/>
</g>
<defs>
<clipPath id="clip0_101_8">
<rect width="1442" height="656" fill="white"/>
</clipPath>
</defs>
</svg>
