<svg width="267" height="260" viewBox="0 0 267 260" fill="none" xmlns="http://www.w3.org/2000/svg">
<circle cx="130" cy="130" r="130" fill="#C4C4C4"/>
<circle cx="130" cy="130" r="125" stroke="#CF9100" stroke-opacity="0.5" stroke-width="10"/>
<mask id="path-3-inside-1_7_245" fill="white">
<path d="M130 0C99.0466 0 69.1089 11.0446 45.5718 31.1472C22.0346 51.2499 6.44269 79.0912 1.60051 109.664C-3.24166 140.236 2.98367 171.533 19.1568 197.925C35.3299 224.317 60.3894 244.072 89.8278 253.637C119.266 263.202 151.152 261.95 179.749 250.104C208.346 238.259 231.778 216.598 245.831 189.019C259.883 161.439 263.634 129.75 256.408 99.6521C249.182 69.5539 231.454 43.0217 206.412 24.8278L130 130V0Z"/>
</mask>
<path d="M130 0C99.0466 0 69.1089 11.0446 45.5718 31.1472C22.0346 51.2499 6.44269 79.0912 1.60051 109.664C-3.24166 140.236 2.98367 171.533 19.1568 197.925C35.3299 224.317 60.3894 244.072 89.8278 253.637C119.266 263.202 151.152 261.95 179.749 250.104C208.346 238.259 231.778 216.598 245.831 189.019C259.883 161.439 263.634 129.75 256.408 99.6521C249.182 69.5539 231.454 43.0217 206.412 24.8278L130 130V0Z" stroke="#CA1817" stroke-width="20" mask="url(#path-3-inside-1_7_245)"/>
<path d="M250 130C250 196.274 196.05 250 129.5 250C62.9497 250 9 196.274 9 130C9 63.7258 62.9497 10 129.5 10C196.05 10 250 63.7258 250 130Z" fill="#DBD2C5"/>
<path d="M71.1495 169.17C68.6895 169.17 66.2295 168.87 63.7695 168.27C61.3695 167.67 59.1495 167.01 57.1095 166.29C55.1295 165.51 53.5395 164.82 52.3395 164.22C51.1395 163.62 50.5395 163.32 50.5395 163.32L54.4095 152.79C54.4095 152.79 54.9795 153 56.1195 153.42C57.3195 153.84 58.7895 154.35 60.5295 154.95C62.3295 155.49 64.1895 156 66.1095 156.48C68.0895 156.9 69.8595 157.11 71.4195 157.11C73.0395 157.11 74.3295 156.99 75.2895 156.75C76.3095 156.51 77.0595 156.18 77.5395 155.76C78.5595 154.92 79.3095 153.51 79.7895 151.53C80.2695 149.55 80.5995 147.06 80.7795 144.06C80.7795 144.06 80.2695 144.12 79.2495 144.24C78.2895 144.36 77.0895 144.48 75.6495 144.6C74.2695 144.72 72.8895 144.78 71.5095 144.78C67.0695 144.78 63.1695 144.09 59.8095 142.71C56.4495 141.33 53.8395 139.17 51.9795 136.23C50.1195 133.29 49.1895 129.51 49.1895 124.89C49.1895 118.11 51.1695 112.86 55.1295 109.14C59.1495 105.42 64.6995 103.56 71.7795 103.56C76.5195 103.56 80.6595 104.55 84.1995 106.53C87.7395 108.45 90.4995 111.75 92.4795 116.43C94.4595 121.11 95.4495 127.56 95.4495 135.78C95.4495 142.8 94.6395 148.8 93.0195 153.78C91.4595 158.76 88.9095 162.57 85.3695 165.21C81.8295 167.85 77.0895 169.17 71.1495 169.17ZM71.1495 132.9C72.4695 132.9 73.8795 132.81 75.3795 132.63C76.8795 132.39 78.1695 132.18 79.2495 132C80.3295 131.76 80.8695 131.64 80.8695 131.64C80.8695 127.62 80.6895 124.59 80.3295 122.55C80.0295 120.51 79.6395 119.07 79.1595 118.23C78.6795 117.39 78.1695 116.82 77.6295 116.52C76.9695 116.04 76.0695 115.74 74.9295 115.62C73.8495 115.44 72.6795 115.35 71.4195 115.35C67.9395 115.35 65.6895 116.16 64.6695 117.78C63.6495 119.34 63.1395 121.77 63.1395 125.07C63.1395 126.57 63.2895 127.92 63.5895 129.12C63.9495 130.32 64.6995 131.25 65.8395 131.91C66.9795 132.57 68.7495 132.9 71.1495 132.9ZM126.485 169.17C123.065 169.17 119.885 168.69 116.945 167.73C114.065 166.77 111.515 165.12 109.295 162.78C107.075 160.38 105.335 157.05 104.075 152.79C102.875 148.47 102.275 142.98 102.275 136.32C102.275 129.66 102.875 124.2 104.075 119.94C105.335 115.68 107.075 112.38 109.295 110.04C111.515 107.64 114.065 105.96 116.945 105C119.885 104.04 123.065 103.56 126.485 103.56C129.905 103.56 133.085 104.04 136.025 105C138.965 105.96 141.515 107.64 143.675 110.04C145.895 112.38 147.605 115.68 148.805 119.94C150.065 124.2 150.695 129.66 150.695 136.32C150.695 142.98 150.065 148.47 148.805 152.79C147.605 157.05 145.895 160.38 143.675 162.78C141.515 165.12 138.965 166.77 136.025 167.73C133.085 168.69 129.905 169.17 126.485 169.17ZM126.575 157.38C128.735 157.38 130.535 156.84 131.975 155.76C133.475 154.62 134.585 152.52 135.305 149.46C136.025 146.4 136.385 142.02 136.385 136.32C136.385 130.5 135.995 126.09 135.215 123.09C134.435 120.09 133.295 118.05 131.795 116.97C130.355 115.89 128.585 115.35 126.485 115.35C124.385 115.35 122.585 115.89 121.085 116.97C119.645 118.05 118.535 120.09 117.755 123.09C117.035 126.03 116.675 130.38 116.675 136.14C116.675 141.84 117.035 146.22 117.755 149.28C118.535 152.34 119.645 154.47 121.085 155.67C122.585 156.81 124.415 157.38 126.575 157.38ZM166.919 168.81L187.349 131.46L201.479 102.03H213.809L195.359 137.13L179.339 168.81H166.919ZM172.229 132.9C169.709 132.9 167.279 132.42 164.939 131.46C162.599 130.44 160.679 128.79 159.179 126.51C157.679 124.23 156.929 121.23 156.929 117.51C156.929 113.79 157.679 110.82 159.179 108.6C160.679 106.38 162.599 104.79 164.939 103.83C167.279 102.81 169.709 102.3 172.229 102.3C174.749 102.3 177.179 102.81 179.519 103.83C181.859 104.79 183.779 106.38 185.279 108.6C186.779 110.82 187.529 113.79 187.529 117.51C187.529 121.23 186.779 124.23 185.279 126.51C183.779 128.79 181.859 130.44 179.519 131.46C177.179 132.42 174.749 132.9 172.229 132.9ZM172.229 122.46C173.609 122.46 174.719 122.1 175.559 121.38C176.459 120.66 176.909 119.37 176.909 117.51C176.909 115.71 176.459 114.48 175.559 113.82C174.719 113.1 173.609 112.74 172.229 112.74C170.849 112.74 169.709 113.1 168.809 113.82C167.969 114.48 167.549 115.71 167.549 117.51C167.549 119.37 167.969 120.66 168.809 121.38C169.709 122.1 170.849 122.46 172.229 122.46ZM210.119 169.17C207.599 169.17 205.169 168.69 202.829 167.73C200.489 166.71 198.569 165.06 197.069 162.78C195.569 160.5 194.819 157.5 194.819 153.78C194.819 150.06 195.569 147.09 197.069 144.87C198.569 142.65 200.489 141.06 202.829 140.1C205.169 139.08 207.599 138.57 210.119 138.57C212.639 138.57 215.069 139.08 217.409 140.1C219.749 141.06 221.669 142.65 223.169 144.87C224.669 147.09 225.419 150.06 225.419 153.78C225.419 157.5 224.669 160.5 223.169 162.78C221.669 165.06 219.749 166.71 217.409 167.73C215.069 168.69 212.639 169.17 210.119 169.17ZM210.119 158.73C211.499 158.73 212.609 158.37 213.449 157.65C214.349 156.93 214.799 155.64 214.799 153.78C214.799 151.98 214.349 150.75 213.449 150.09C212.609 149.37 211.499 149.01 210.119 149.01C208.739 149.01 207.599 149.37 206.699 150.09C205.859 150.75 205.439 151.98 205.439 153.78C205.439 155.64 205.859 156.93 206.699 157.65C207.599 158.37 208.739 158.73 210.119 158.73Z" fill="#CF9100" fill-opacity="0.8"/>
</svg>
