<svg width="267" height="260" viewBox="0 0 267 260" fill="none" xmlns="http://www.w3.org/2000/svg">
<circle cx="130" cy="130" r="130" fill="#C4C4C4"/>
<circle cx="130" cy="130" r="125" stroke="#CF9100" stroke-opacity="0.5" stroke-width="10"/>
<mask id="path-3-inside-1_7_252" fill="white">
<path d="M130 0C95.5219 0 62.4558 13.6964 38.0761 38.0761C13.6964 62.4559 -9.59118e-07 95.5219 0 130C9.59118e-07 164.478 13.6964 197.544 38.0761 221.924C62.4558 246.304 95.5219 260 130 260V130V0Z"/>
</mask>
<path d="M130 0C95.5219 0 62.4558 13.6964 38.0761 38.0761C13.6964 62.4559 -9.59118e-07 95.5219 0 130C9.59118e-07 164.478 13.6964 197.544 38.0761 221.924C62.4558 246.304 95.5219 260 130 260V130V0Z" stroke="#CA1817" stroke-width="20" mask="url(#path-3-inside-1_7_252)"/>
<path d="M250 130C250 196.274 196.05 250 129.5 250C62.9497 250 9 196.274 9 130C9 63.7258 62.9497 10 129.5 10C196.05 10 250 63.7258 250 130Z" fill="#DBD2C5"/>
<path d="M71.4234 169.17C68.2434 169.17 65.2434 168.81 62.4234 168.09C59.6034 167.37 57.0834 166.56 54.8634 165.66C52.7034 164.7 50.9934 163.86 49.7334 163.14C48.5334 162.42 47.9334 162.06 47.9334 162.06L52.0734 151.8C52.0734 151.8 52.7634 152.07 54.1434 152.61C55.5834 153.09 57.3834 153.69 59.5434 154.41C61.7034 155.07 63.9534 155.67 66.2934 156.21C68.6334 156.69 70.7634 156.93 72.6834 156.93C74.7834 156.93 76.3734 156.54 77.4534 155.76C78.1134 155.28 78.6234 154.41 78.9834 153.15C79.3434 151.83 79.5234 150.33 79.5234 148.65C79.5234 147.09 79.3434 145.65 78.9834 144.33C78.6234 143.01 78.1434 142.14 77.5434 141.72C76.7634 141.06 75.3234 140.55 73.2234 140.19C71.1234 139.77 67.7634 139.56 63.1434 139.56C62.0034 139.56 60.5934 139.59 58.9134 139.65C57.2334 139.65 55.7334 139.68 54.4134 139.74C53.1534 139.74 52.5234 139.74 52.5234 139.74L58.0134 104.73H91.2234V116.43L69.7134 116.07L67.9134 128.04C72.9534 128.34 77.4234 129.12 81.3234 130.38C85.2834 131.58 88.3734 133.56 90.5934 136.32C92.8734 139.08 94.0134 143.01 94.0134 148.11C94.0134 154.77 91.9734 159.96 87.8934 163.68C83.8734 167.34 78.3834 169.17 71.4234 169.17ZM124.772 169.17C121.352 169.17 118.172 168.69 115.232 167.73C112.352 166.77 109.802 165.12 107.582 162.78C105.362 160.38 103.622 157.05 102.362 152.79C101.162 148.47 100.562 142.98 100.562 136.32C100.562 129.66 101.162 124.2 102.362 119.94C103.622 115.68 105.362 112.38 107.582 110.04C109.802 107.64 112.352 105.96 115.232 105C118.172 104.04 121.352 103.56 124.772 103.56C128.192 103.56 131.372 104.04 134.312 105C137.252 105.96 139.802 107.64 141.962 110.04C144.182 112.38 145.892 115.68 147.092 119.94C148.352 124.2 148.982 129.66 148.982 136.32C148.982 142.98 148.352 148.47 147.092 152.79C145.892 157.05 144.182 160.38 141.962 162.78C139.802 165.12 137.252 166.77 134.312 167.73C131.372 168.69 128.192 169.17 124.772 169.17ZM124.862 157.38C127.022 157.38 128.822 156.84 130.262 155.76C131.762 154.62 132.872 152.52 133.592 149.46C134.312 146.4 134.672 142.02 134.672 136.32C134.672 130.5 134.282 126.09 133.502 123.09C132.722 120.09 131.582 118.05 130.082 116.97C128.642 115.89 126.872 115.35 124.772 115.35C122.672 115.35 120.872 115.89 119.372 116.97C117.932 118.05 116.822 120.09 116.042 123.09C115.322 126.03 114.962 130.38 114.962 136.14C114.962 141.84 115.322 146.22 116.042 149.28C116.822 152.34 117.932 154.47 119.372 155.67C120.872 156.81 122.702 157.38 124.862 157.38ZM165.205 168.81L185.635 131.46L199.765 102.03H212.095L193.645 137.13L177.625 168.81H165.205ZM170.515 132.9C167.995 132.9 165.565 132.42 163.225 131.46C160.885 130.44 158.965 128.79 157.465 126.51C155.965 124.23 155.215 121.23 155.215 117.51C155.215 113.79 155.965 110.82 157.465 108.6C158.965 106.38 160.885 104.79 163.225 103.83C165.565 102.81 167.995 102.3 170.515 102.3C173.035 102.3 175.465 102.81 177.805 103.83C180.145 104.79 182.065 106.38 183.565 108.6C185.065 110.82 185.815 113.79 185.815 117.51C185.815 121.23 185.065 124.23 183.565 126.51C182.065 128.79 180.145 130.44 177.805 131.46C175.465 132.42 173.035 132.9 170.515 132.9ZM170.515 122.46C171.895 122.46 173.005 122.1 173.845 121.38C174.745 120.66 175.195 119.37 175.195 117.51C175.195 115.71 174.745 114.48 173.845 113.82C173.005 113.1 171.895 112.74 170.515 112.74C169.135 112.74 167.995 113.1 167.095 113.82C166.255 114.48 165.835 115.71 165.835 117.51C165.835 119.37 166.255 120.66 167.095 121.38C167.995 122.1 169.135 122.46 170.515 122.46ZM208.405 169.17C205.885 169.17 203.455 168.69 201.115 167.73C198.775 166.71 196.855 165.06 195.355 162.78C193.855 160.5 193.105 157.5 193.105 153.78C193.105 150.06 193.855 147.09 195.355 144.87C196.855 142.65 198.775 141.06 201.115 140.1C203.455 139.08 205.885 138.57 208.405 138.57C210.925 138.57 213.355 139.08 215.695 140.1C218.035 141.06 219.955 142.65 221.455 144.87C222.955 147.09 223.705 150.06 223.705 153.78C223.705 157.5 222.955 160.5 221.455 162.78C219.955 165.06 218.035 166.71 215.695 167.73C213.355 168.69 210.925 169.17 208.405 169.17ZM208.405 158.73C209.785 158.73 210.895 158.37 211.735 157.65C212.635 156.93 213.085 155.64 213.085 153.78C213.085 151.98 212.635 150.75 211.735 150.09C210.895 149.37 209.785 149.01 208.405 149.01C207.025 149.01 205.885 149.37 204.985 150.09C204.145 150.75 203.725 151.98 203.725 153.78C203.725 155.64 204.145 156.93 204.985 157.65C205.885 158.37 207.025 158.73 208.405 158.73Z" fill="#CF9100" fill-opacity="0.8"/>
</svg>
