<svg width="267" height="260" viewBox="0 0 267 260" fill="none" xmlns="http://www.w3.org/2000/svg">
<circle cx="130" cy="130" r="130" fill="#C4C4C4"/>
<circle cx="130" cy="130" r="125" stroke="#CF9100" stroke-opacity="0.5" stroke-width="10"/>
<mask id="path-3-inside-1_7_246" fill="white">
<path d="M130 0C104.288 0 79.1543 7.62437 57.7759 21.909C36.3975 36.1935 19.735 56.4968 9.89566 80.2512C0.0562662 104.006 -2.51817 130.144 2.49792 155.362C7.514 180.579 19.8953 203.743 38.0761 221.924C56.257 240.105 79.4207 252.486 104.638 257.502C129.856 262.518 155.994 259.944 179.749 250.104C203.503 240.265 223.806 223.603 238.091 202.224C252.376 180.846 260 155.712 260 130L130 130V0Z"/>
</mask>
<path d="M130 0C104.288 0 79.1543 7.62437 57.7759 21.909C36.3975 36.1935 19.735 56.4968 9.89566 80.2512C0.0562662 104.006 -2.51817 130.144 2.49792 155.362C7.514 180.579 19.8953 203.743 38.0761 221.924C56.257 240.105 79.4207 252.486 104.638 257.502C129.856 262.518 155.994 259.944 179.749 250.104C203.503 240.265 223.806 223.603 238.091 202.224C252.376 180.846 260 155.712 260 130L130 130V0Z" stroke="#CA1817" stroke-width="20" mask="url(#path-3-inside-1_7_246)"/>
<path d="M250 130C250 196.274 196.05 250 129.5 250C62.9497 250 9 196.274 9 130C9 63.7258 62.9497 10 129.5 10C196.05 10 250 63.7258 250 130Z" fill="#DBD2C5"/>
<path d="M71.7405 168.81L56.9805 167.64L83.6205 116.52V115.98L53.2005 116.7V104.73H98.9205V112.92L71.7405 168.81ZM121.169 169.17C117.989 169.17 114.989 168.81 112.169 168.09C109.349 167.37 106.829 166.56 104.609 165.66C102.449 164.7 100.739 163.86 99.4795 163.14C98.2795 162.42 97.6795 162.06 97.6795 162.06L101.819 151.8C101.819 151.8 102.509 152.07 103.889 152.61C105.329 153.09 107.129 153.69 109.289 154.41C111.449 155.07 113.699 155.67 116.039 156.21C118.379 156.69 120.509 156.93 122.429 156.93C124.529 156.93 126.119 156.54 127.199 155.76C127.859 155.28 128.369 154.41 128.729 153.15C129.089 151.83 129.269 150.33 129.269 148.65C129.269 147.09 129.089 145.65 128.729 144.33C128.369 143.01 127.889 142.14 127.289 141.72C126.509 141.06 125.069 140.55 122.969 140.19C120.869 139.77 117.509 139.56 112.889 139.56C111.749 139.56 110.339 139.59 108.659 139.65C106.979 139.65 105.479 139.68 104.159 139.74C102.899 139.74 102.269 139.74 102.269 139.74L107.759 104.73H140.969V116.43L119.459 116.07L117.659 128.04C122.699 128.34 127.169 129.12 131.069 130.38C135.029 131.58 138.119 133.56 140.339 136.32C142.619 139.08 143.759 143.01 143.759 148.11C143.759 154.77 141.719 159.96 137.639 163.68C133.619 167.34 128.129 169.17 121.169 169.17ZM159.668 168.81L180.098 131.46L194.228 102.03H206.558L188.108 137.13L172.088 168.81H159.668ZM164.978 132.9C162.458 132.9 160.028 132.42 157.688 131.46C155.348 130.44 153.428 128.79 151.928 126.51C150.428 124.23 149.678 121.23 149.678 117.51C149.678 113.79 150.428 110.82 151.928 108.6C153.428 106.38 155.348 104.79 157.688 103.83C160.028 102.81 162.458 102.3 164.978 102.3C167.498 102.3 169.928 102.81 172.268 103.83C174.608 104.79 176.528 106.38 178.028 108.6C179.528 110.82 180.278 113.79 180.278 117.51C180.278 121.23 179.528 124.23 178.028 126.51C176.528 128.79 174.608 130.44 172.268 131.46C169.928 132.42 167.498 132.9 164.978 132.9ZM164.978 122.46C166.358 122.46 167.468 122.1 168.308 121.38C169.208 120.66 169.658 119.37 169.658 117.51C169.658 115.71 169.208 114.48 168.308 113.82C167.468 113.1 166.358 112.74 164.978 112.74C163.598 112.74 162.458 113.1 161.558 113.82C160.718 114.48 160.298 115.71 160.298 117.51C160.298 119.37 160.718 120.66 161.558 121.38C162.458 122.1 163.598 122.46 164.978 122.46ZM202.868 169.17C200.348 169.17 197.918 168.69 195.578 167.73C193.238 166.71 191.318 165.06 189.818 162.78C188.318 160.5 187.568 157.5 187.568 153.78C187.568 150.06 188.318 147.09 189.818 144.87C191.318 142.65 193.238 141.06 195.578 140.1C197.918 139.08 200.348 138.57 202.868 138.57C205.388 138.57 207.818 139.08 210.158 140.1C212.498 141.06 214.418 142.65 215.918 144.87C217.418 147.09 218.168 150.06 218.168 153.78C218.168 157.5 217.418 160.5 215.918 162.78C214.418 165.06 212.498 166.71 210.158 167.73C207.818 168.69 205.388 169.17 202.868 169.17ZM202.868 158.73C204.248 158.73 205.358 158.37 206.198 157.65C207.098 156.93 207.548 155.64 207.548 153.78C207.548 151.98 207.098 150.75 206.198 150.09C205.358 149.37 204.248 149.01 202.868 149.01C201.488 149.01 200.348 149.37 199.448 150.09C198.608 150.75 198.188 151.98 198.188 153.78C198.188 155.64 198.608 156.93 199.448 157.65C200.348 158.37 201.488 158.73 202.868 158.73Z" fill="#CF9100" fill-opacity="0.8"/>
</svg>
