<svg width="1183" height="326" viewBox="0 0 1183 326" fill="none" xmlns="http://www.w3.org/2000/svg">
<path d="M50.9 51.65C49.3 51.65 47.7667 51.4833 46.3 51.15C44.8333 50.85 43.5167 50.5 42.35 50.1C41.2167 49.7 40.3167 49.35 39.65 49.05C38.9833 48.7167 38.65 48.55 38.65 48.55C38.65 48.55 38.75 48.25 38.95 47.65C39.15 47.0167 39.3667 46.3 39.6 45.5C39.8667 44.6667 40.1 43.95 40.3 43.35C40.5 42.75 40.6 42.45 40.6 42.45C40.6 42.45 40.9333 42.5833 41.6 42.85C42.3 43.0833 43.2 43.3667 44.3 43.7C45.4333 44 46.65 44.2833 47.95 44.55C49.2833 44.7833 50.6 44.9 51.9 44.9C52.5333 44.9 53.0333 44.85 53.4 44.75C53.7667 44.6167 54.05 44.4833 54.25 44.35C54.6167 44.1167 54.9 43.75 55.1 43.25C55.3333 42.75 55.45 42.0333 55.45 41.1C55.45 40.2667 55.1167 39.5667 54.45 39C53.7833 38.4 52.9167 37.85 51.85 37.35C50.7833 36.85 49.6333 36.3167 48.4 35.75C47.3333 35.25 46.2667 34.7333 45.2 34.2C44.1333 33.6333 43.1667 32.9667 42.3 32.2C41.4333 31.4333 40.7333 30.4833 40.2 29.35C39.6667 28.1833 39.4 26.75 39.4 25.05C39.4 23.2167 39.85 21.5667 40.75 20.1C41.6833 18.6 43.0667 17.4167 44.9 16.55C46.7667 15.65 49.0667 15.2 51.8 15.2C53 15.2 54.2 15.2833 55.4 15.45C56.6333 15.6167 57.7667 15.8167 58.8 16.05C59.8333 16.25 60.65 16.4333 61.25 16.6C61.8833 16.7667 62.2 16.85 62.2 16.85L60.95 23.1C60.95 23.1 60.6167 23.05 59.95 22.95C59.3167 22.8167 58.4833 22.6833 57.45 22.55C56.4167 22.3833 55.3167 22.25 54.15 22.15C52.9833 22.0167 51.8833 21.95 50.85 21.95C50.2167 21.95 49.7167 22 49.35 22.1C48.9833 22.2 48.6667 22.3333 48.4 22.5C48.1667 22.6667 47.9333 22.9333 47.7 23.3C47.5 23.6333 47.4 24.2167 47.4 25.05C47.4 26.0167 47.9 26.8333 48.9 27.5C49.9333 28.1667 51.1667 28.8333 52.6 29.5C53.7333 30.0333 54.9167 30.5833 56.15 31.15C57.4167 31.7167 58.6 32.4 59.7 33.2C60.8 34 61.7 35.0167 62.4 36.25C63.1 37.45 63.45 38.9667 63.45 40.8C63.45 42.9667 62.9167 44.8667 61.85 46.5C60.8167 48.1333 59.35 49.4 57.45 50.3C55.5833 51.2 53.4 51.65 50.9 51.65ZM76.6156 51.65C75.0156 51.65 73.5656 51.2833 72.2656 50.55C70.999 49.7833 69.9823 48.6833 69.2156 47.25C68.449 45.8167 68.0656 44.0833 68.0656 42.05C68.0656 39.6167 68.6156 37.7167 69.7156 36.35C70.8156 34.95 72.3656 33.95 74.3656 33.35C76.3656 32.75 78.7323 32.45 81.4656 32.45H85.2156C85.2156 31.0167 85.149 30 85.0156 29.4C84.8823 28.8 84.7323 28.3667 84.5656 28.1C84.4323 27.8667 84.1656 27.65 83.7656 27.45C83.399 27.25 82.6323 27.15 81.4656 27.15C80.2656 27.15 79.0156 27.25 77.7156 27.45C76.449 27.65 75.2656 27.8833 74.1656 28.15C73.0656 28.4167 72.1656 28.65 71.4656 28.85C70.7656 29.05 70.4156 29.15 70.4156 29.15L68.8156 23.55C68.8156 23.55 69.149 23.4167 69.8156 23.15C70.5156 22.8833 71.449 22.5833 72.6156 22.25C73.8156 21.9167 75.1656 21.6167 76.6656 21.35C78.199 21.0833 79.8156 20.95 81.5156 20.95C84.3823 20.95 86.649 21.4 88.3156 22.3C89.9823 23.1667 91.1656 24.4333 91.8656 26.1C92.599 27.7333 92.9656 29.7 92.9656 32V51H88.0656L87.0656 47.75H86.7656C86.7656 47.75 86.4656 47.95 85.8656 48.35C85.299 48.75 84.5323 49.2 83.5656 49.7C82.599 50.2 81.5156 50.65 80.3156 51.05C79.1156 51.45 77.8823 51.65 76.6156 51.65ZM78.8656 45.3C79.799 45.3 80.749 45.15 81.7156 44.85C82.7156 44.5167 83.549 44.2 84.2156 43.9C84.8823 43.5667 85.2156 43.4 85.2156 43.4V38.2C85.2156 38.2 84.8156 38.1667 84.0156 38.1C83.2156 38 82.1823 37.95 80.9156 37.95C78.7156 37.95 77.349 38.2 76.8156 38.7C76.5823 38.9 76.3823 39.25 76.2156 39.75C76.049 40.2167 75.9656 40.8833 75.9656 41.75C75.9656 42.9833 76.1823 43.8833 76.6156 44.45C77.0823 45.0167 77.8323 45.3 78.8656 45.3ZM100.569 51V21.6H105.519L106.419 24.55H106.719C107.519 24.05 108.436 23.5167 109.469 22.95C110.536 22.3833 111.686 21.9 112.919 21.5C114.186 21.0667 115.502 20.85 116.869 20.85C118.536 20.85 119.886 21.2 120.919 21.9C121.952 22.5667 122.752 23.4833 123.319 24.65C124.652 23.7833 126.136 22.9333 127.769 22.1C129.436 21.2667 131.269 20.85 133.269 20.85C135.336 20.85 136.936 21.3333 138.069 22.3C139.202 23.2333 139.986 24.5167 140.419 26.15C140.886 27.7833 141.119 29.65 141.119 31.75V51H133.269V33.1C133.269 31.7333 133.236 30.7167 133.169 30.05C133.102 29.35 132.902 28.8 132.569 28.4C132.136 27.8667 131.436 27.6 130.469 27.6C129.569 27.6 128.552 27.8333 127.419 28.3C126.286 28.7333 125.336 29.2167 124.569 29.75C124.602 30.15 124.619 30.5667 124.619 31C124.652 31.4 124.669 31.8167 124.669 32.25V51H116.919V33.1C116.919 31.7333 116.886 30.7 116.819 30C116.752 29.3 116.552 28.75 116.219 28.35C115.986 28.05 115.686 27.85 115.319 27.75C114.952 27.65 114.586 27.6 114.219 27.6C113.319 27.6 112.302 27.8167 111.169 28.25C110.036 28.65 109.086 29.1333 108.319 29.7V51H100.569ZM158.522 51.65C156.989 51.65 155.505 51.5 154.072 51.2C152.639 50.9 151.355 50.5667 150.222 50.2C149.089 49.8333 148.189 49.5 147.522 49.2C146.855 48.9 146.522 48.75 146.522 48.75L148.422 42.65C148.422 42.65 148.755 42.7833 149.422 43.05C150.122 43.3167 151.022 43.6333 152.122 44C153.222 44.3667 154.372 44.6833 155.572 44.95C156.805 45.2167 157.939 45.35 158.972 45.35C160.005 45.35 160.739 45.1833 161.172 44.85C161.739 44.45 162.022 43.7667 162.022 42.8C162.022 41.9667 161.755 41.3333 161.222 40.9C160.689 40.4333 159.972 40.05 159.072 39.75C158.205 39.45 157.222 39.15 156.122 38.85C155.055 38.5167 153.972 38.1667 152.872 37.8C151.772 37.4 150.755 36.8833 149.822 36.25C148.922 35.5833 148.189 34.7333 147.622 33.7C147.055 32.6667 146.772 31.3333 146.772 29.7C146.772 27.0667 147.655 24.95 149.422 23.35C151.189 21.75 154.022 20.95 157.922 20.95C159.389 20.95 160.805 21.05 162.172 21.25C163.539 21.45 164.755 21.6833 165.822 21.95C166.889 22.2167 167.722 22.45 168.322 22.65L167.172 28.65C167.172 28.65 166.855 28.5833 166.222 28.45C165.589 28.2833 164.772 28.1 163.772 27.9C162.772 27.7 161.705 27.5333 160.572 27.4C159.439 27.2333 158.372 27.15 157.372 27.15C156.539 27.15 155.955 27.2 155.622 27.3C155.289 27.4 155.039 27.5167 154.872 27.65C154.739 27.75 154.605 27.9167 154.472 28.15C154.372 28.35 154.322 28.6333 154.322 29C154.322 29.7333 154.589 30.3333 155.122 30.8C155.655 31.2333 156.355 31.6 157.222 31.9C158.122 32.2 159.089 32.5 160.122 32.8C161.189 33.1 162.272 33.4333 163.372 33.8C164.505 34.1333 165.539 34.6167 166.472 35.25C167.405 35.85 168.155 36.6833 168.722 37.75C169.289 38.7833 169.572 40.15 169.572 41.85C169.572 44.7833 168.622 47.15 166.722 48.95C164.822 50.75 162.089 51.65 158.522 51.65ZM182.777 51.65C180.544 51.65 178.827 51.1833 177.627 50.25C176.461 49.2833 175.661 47.9833 175.227 46.35C174.794 44.6833 174.577 42.8167 174.577 40.75V21.6H182.327V40C182.327 41.4333 182.377 42.45 182.477 43.05C182.577 43.65 182.744 44.0667 182.977 44.3C183.411 44.7 184.111 44.9 185.077 44.9C186.044 44.9 187.094 44.6833 188.227 44.25C189.394 43.8167 190.377 43.3333 191.177 42.8V21.6H198.927V51H193.977L193.027 47.95H192.727C191.394 48.75 189.861 49.5667 188.127 50.4C186.427 51.2333 184.644 51.65 182.777 51.65ZM206.819 51V21.6H211.769L212.669 24.55H212.969C214.336 23.75 215.902 22.95 217.669 22.15C219.469 21.35 221.469 20.95 223.669 20.95C225.736 20.95 227.302 21.4167 228.369 22.35C229.436 23.2833 230.169 24.5667 230.569 26.2C230.969 27.8333 231.169 29.6833 231.169 31.75V51H223.419V33.2C223.419 31.8333 223.386 30.8 223.319 30.1C223.252 29.4 223.052 28.85 222.719 28.45C222.319 27.95 221.652 27.7 220.719 27.7C219.752 27.7 218.686 27.9167 217.519 28.35C216.352 28.75 215.369 29.2333 214.569 29.8V51H206.819ZM248.311 59.95C246.778 59.95 245.294 59.8667 243.861 59.7C242.428 59.5333 241.144 59.3333 240.011 59.1C238.878 58.8667 237.978 58.6667 237.311 58.5C236.644 58.3333 236.311 58.25 236.311 58.25L237.161 52.35C239.561 52.7167 241.944 53.05 244.311 53.35C246.711 53.65 248.961 53.8 251.061 53.8C252.194 53.8 252.961 53.7333 253.361 53.6C253.794 53.5 254.011 53.3 254.011 53C254.011 52.8667 253.928 52.7333 253.761 52.6C253.628 52.5 253.294 52.3333 252.761 52.1C252.228 51.9 251.378 51.5833 250.211 51.15C249.044 50.75 247.461 50.1833 245.461 49.45C244.061 48.95 243.044 48.5667 242.411 48.3C241.778 48.0333 241.378 47.8333 241.211 47.7C241.044 47.5333 240.961 47.3833 240.961 47.25C240.961 46.95 241.061 46.5 241.261 45.9C241.461 45.2667 241.678 44.6167 241.911 43.95C242.178 43.25 242.411 42.6667 242.611 42.2C242.811 41.7333 242.911 41.5 242.911 41.5C240.611 40.7 238.828 39.5 237.561 37.9C236.328 36.3 235.711 34.2333 235.711 31.7C235.711 29 236.344 26.8667 237.611 25.3C238.878 23.7333 240.561 22.6167 242.661 21.95C244.761 21.2833 247.028 20.95 249.461 20.95C250.161 20.95 251.044 20.9667 252.111 21C253.178 21.0333 254.278 21.0833 255.411 21.15C256.578 21.2167 257.678 21.2833 258.711 21.35C259.744 21.4167 260.578 21.4667 261.211 21.5C261.844 21.5333 262.161 21.55 262.161 21.55V26.05L259.061 26.55C259.061 26.55 259.161 26.8167 259.361 27.35C259.594 27.8833 259.811 28.5833 260.011 29.45C260.211 30.2833 260.311 31.1833 260.311 32.15C260.311 34.0167 259.811 35.7167 258.811 37.25C257.811 38.7833 256.361 40 254.461 40.9C252.561 41.8 250.244 42.2667 247.511 42.3C247.511 42.3 247.494 42.45 247.461 42.75C247.428 43.05 247.411 43.2333 247.411 43.3C247.411 43.5 247.861 43.7333 248.761 44C249.661 44.2667 250.944 44.7333 252.611 45.4C255.811 46.6333 258.028 47.8 259.261 48.9C260.528 50 261.161 51.2833 261.161 52.75C261.161 54.3167 260.611 55.6333 259.511 56.7C258.411 57.7667 256.894 58.5667 254.961 59.1C253.028 59.6667 250.811 59.95 248.311 59.95ZM248.061 36.65C249.428 36.65 250.478 36.5 251.211 36.2C251.978 35.9 252.494 35.35 252.761 34.55C253.061 33.7167 253.211 32.5667 253.211 31.1C253.211 30.0333 253.144 29.1167 253.011 28.35C252.911 27.5833 252.761 27.1 252.561 26.9C252.361 26.7 251.828 26.5833 250.961 26.55C250.128 26.4833 249.378 26.45 248.711 26.45C247.211 26.45 246.028 26.5667 245.161 26.8C244.328 27 243.728 27.4667 243.361 28.2C242.994 28.9 242.811 30 242.811 31.5C242.811 33.5333 243.178 34.9 243.911 35.6C244.644 36.3 246.028 36.65 248.061 36.65ZM279.627 51L279.827 34.8L279.627 15.85H287.527L287.377 31.5L287.527 51H279.627ZM300.538 51L300.688 22.4L290.887 22.55V15.85H318.238V22.55L308.238 22.4L308.388 51H300.538ZM317.155 37.95V31.35H330.055V37.95H317.155ZM345.338 51.65C343.805 51.65 342.322 51.5 340.888 51.2C339.455 50.9 338.172 50.5667 337.038 50.2C335.905 49.8333 335.005 49.5 334.338 49.2C333.672 48.9 333.338 48.75 333.338 48.75L335.238 42.65C335.238 42.65 335.572 42.7833 336.238 43.05C336.938 43.3167 337.838 43.6333 338.938 44C340.038 44.3667 341.188 44.6833 342.388 44.95C343.622 45.2167 344.755 45.35 345.788 45.35C346.822 45.35 347.555 45.1833 347.988 44.85C348.555 44.45 348.838 43.7667 348.838 42.8C348.838 41.9667 348.572 41.3333 348.038 40.9C347.505 40.4333 346.788 40.05 345.888 39.75C345.022 39.45 344.038 39.15 342.938 38.85C341.872 38.5167 340.788 38.1667 339.688 37.8C338.588 37.4 337.572 36.8833 336.638 36.25C335.738 35.5833 335.005 34.7333 334.438 33.7C333.872 32.6667 333.588 31.3333 333.588 29.7C333.588 27.0667 334.472 24.95 336.238 23.35C338.005 21.75 340.838 20.95 344.738 20.95C346.205 20.95 347.622 21.05 348.988 21.25C350.355 21.45 351.572 21.6833 352.638 21.95C353.705 22.2167 354.538 22.45 355.138 22.65L353.988 28.65C353.988 28.65 353.672 28.5833 353.038 28.45C352.405 28.2833 351.588 28.1 350.588 27.9C349.588 27.7 348.522 27.5333 347.388 27.4C346.255 27.2333 345.188 27.15 344.188 27.15C343.355 27.15 342.772 27.2 342.438 27.3C342.105 27.4 341.855 27.5167 341.688 27.65C341.555 27.75 341.422 27.9167 341.288 28.15C341.188 28.35 341.138 28.6333 341.138 29C341.138 29.7333 341.405 30.3333 341.938 30.8C342.472 31.2333 343.172 31.6 344.038 31.9C344.938 32.2 345.905 32.5 346.938 32.8C348.005 33.1 349.088 33.4333 350.188 33.8C351.322 34.1333 352.355 34.6167 353.288 35.25C354.222 35.85 354.972 36.6833 355.538 37.75C356.105 38.7833 356.388 40.15 356.388 41.85C356.388 44.7833 355.438 47.15 353.538 48.95C351.638 50.75 348.905 51.65 345.338 51.65ZM373.794 51.65C371.194 51.65 368.894 51.1333 366.894 50.1C364.894 49.0333 363.327 47.3667 362.194 45.1C361.06 42.8333 360.494 39.8667 360.494 36.2C360.494 33.1667 360.877 30.6667 361.644 28.7C362.41 26.7 363.46 25.15 364.794 24.05C366.16 22.9167 367.727 22.1167 369.494 21.65C371.26 21.1833 373.127 20.95 375.094 20.95C376.96 20.95 378.644 21.0833 380.144 21.35C381.677 21.6167 382.81 21.85 383.544 22.05L382.694 27.9C381.727 27.7333 380.46 27.5667 378.894 27.4C377.36 27.2 375.91 27.1 374.544 27.1C373.144 27.1 372.144 27.2167 371.544 27.45C370.977 27.65 370.544 27.9 370.244 28.2C369.01 29.5 368.394 32.1667 368.394 36.2C368.394 38.1333 368.51 39.6833 368.744 40.85C369.01 41.9833 369.327 42.85 369.694 43.45C370.094 44.05 370.46 44.4833 370.794 44.75C370.994 44.8833 371.294 45.05 371.694 45.25C372.127 45.4167 372.71 45.5 373.444 45.5C374.244 45.5 375.127 45.3833 376.094 45.15C377.094 44.8833 378.06 44.6 378.994 44.3C379.927 43.9667 380.694 43.6833 381.294 43.45C381.894 43.2167 382.194 43.1 382.194 43.1L384.294 48.6C384.294 48.6 383.86 48.8667 382.994 49.4C382.16 49.9 380.96 50.4 379.394 50.9C377.827 51.4 375.96 51.65 373.794 51.65ZM388.991 51V12.95H396.741V23.45C397.408 23.1167 398.224 22.75 399.191 22.35C400.158 21.95 401.208 21.6 402.341 21.3C403.474 21 404.624 20.85 405.791 20.85C407.824 20.85 409.374 21.3333 410.441 22.3C411.541 23.2667 412.291 24.5667 412.691 26.2C413.124 27.8333 413.341 29.6833 413.341 31.75V51H405.591V33.1C405.591 31.8 405.524 30.7667 405.391 30C405.258 29.2333 405.058 28.6833 404.791 28.35C404.391 27.85 403.741 27.6 402.841 27.6C402.341 27.6 401.708 27.7 400.941 27.9C400.208 28.1 399.458 28.35 398.691 28.65C397.924 28.9167 397.274 29.1667 396.741 29.4V51H388.991ZM431.989 51.65C428.755 51.65 426.189 51.0333 424.289 49.8C422.389 48.5333 421.039 46.75 420.239 44.45C419.439 42.15 419.039 39.4333 419.039 36.3C419.039 33.1333 419.439 30.4167 420.239 28.15C421.039 25.85 422.389 24.0833 424.289 22.85C426.189 21.5833 428.755 20.95 431.989 20.95C435.255 20.95 437.822 21.5833 439.689 22.85C441.555 24.0833 442.872 25.85 443.639 28.15C444.439 30.4167 444.839 33.1333 444.839 36.3C444.839 39.4333 444.439 42.15 443.639 44.45C442.872 46.75 441.555 48.5333 439.689 49.8C437.822 51.0333 435.255 51.65 431.989 51.65ZM431.989 45.75C433.289 45.75 434.289 45.5 434.989 45C435.722 44.4667 436.222 43.5167 436.489 42.15C436.789 40.7833 436.939 38.8333 436.939 36.3C436.939 33.7333 436.789 31.7667 436.489 30.4C436.189 29.0333 435.672 28.1 434.939 27.6C434.239 27.1 433.255 26.85 431.989 26.85C430.722 26.85 429.705 27.1 428.939 27.6C428.205 28.1 427.689 29.0333 427.389 30.4C427.089 31.7667 426.939 33.7333 426.939 36.3C426.939 38.8333 427.089 40.7833 427.389 42.15C427.689 43.5167 428.205 44.4667 428.939 45C429.672 45.5 430.689 45.75 431.989 45.75ZM462.604 51.65C459.371 51.65 456.804 51.0333 454.904 49.8C453.004 48.5333 451.654 46.75 450.854 44.45C450.054 42.15 449.654 39.4333 449.654 36.3C449.654 33.1333 450.054 30.4167 450.854 28.15C451.654 25.85 453.004 24.0833 454.904 22.85C456.804 21.5833 459.371 20.95 462.604 20.95C465.871 20.95 468.437 21.5833 470.304 22.85C472.171 24.0833 473.487 25.85 474.254 28.15C475.054 30.4167 475.454 33.1333 475.454 36.3C475.454 39.4333 475.054 42.15 474.254 44.45C473.487 46.75 472.171 48.5333 470.304 49.8C468.437 51.0333 465.871 51.65 462.604 51.65ZM462.604 45.75C463.904 45.75 464.904 45.5 465.604 45C466.337 44.4667 466.837 43.5167 467.104 42.15C467.404 40.7833 467.554 38.8333 467.554 36.3C467.554 33.7333 467.404 31.7667 467.104 30.4C466.804 29.0333 466.287 28.1 465.554 27.6C464.854 27.1 463.871 26.85 462.604 26.85C461.337 26.85 460.321 27.1 459.554 27.6C458.821 28.1 458.304 29.0333 458.004 30.4C457.704 31.7667 457.554 33.7333 457.554 36.3C457.554 38.8333 457.704 40.7833 458.004 42.15C458.304 43.5167 458.821 44.4667 459.554 45C460.287 45.5 461.304 45.75 462.604 45.75ZM481.569 51V12.95H489.319V51H481.569Z" fill="#CA1817"/>
<path d="M87.5 171L88.34 146.675H92.61L98.105 162.53H98.35L103.88 146.675H108.15L108.99 171H106.05L105.77 149.615H105.525L100.03 165.295H96.425L90.965 149.615H90.72L90.44 171H87.5ZM122.586 171.455C120.649 171.455 119.121 171.023 118.001 170.16C116.904 169.297 116.123 168.072 115.656 166.485C115.189 164.898 114.956 163.008 114.956 160.815C114.956 158.622 115.189 156.732 115.656 155.145C116.123 153.558 116.904 152.333 118.001 151.47C119.121 150.607 120.649 150.175 122.586 150.175C124.523 150.175 126.039 150.607 127.136 151.47C128.256 152.333 129.049 153.558 129.516 155.145C129.983 156.732 130.216 158.622 130.216 160.815C130.216 163.008 129.983 164.898 129.516 166.485C129.049 168.072 128.256 169.297 127.136 170.16C126.039 171.023 124.523 171.455 122.586 171.455ZM122.586 168.935C123.473 168.935 124.208 168.83 124.791 168.62C125.398 168.41 125.876 168.025 126.226 167.465C126.599 166.905 126.856 166.088 126.996 165.015C127.159 163.942 127.241 162.542 127.241 160.815C127.241 159.088 127.159 157.688 126.996 156.615C126.856 155.542 126.599 154.725 126.226 154.165C125.876 153.582 125.398 153.197 124.791 153.01C124.208 152.8 123.473 152.695 122.586 152.695C121.699 152.695 120.953 152.8 120.346 153.01C119.763 153.197 119.284 153.582 118.911 154.165C118.561 154.725 118.304 155.542 118.141 156.615C117.978 157.688 117.896 159.088 117.896 160.815C117.896 162.542 117.978 163.942 118.141 165.015C118.304 166.088 118.561 166.905 118.911 167.465C119.284 168.025 119.763 168.41 120.346 168.62C120.953 168.83 121.699 168.935 122.586 168.935ZM143.347 171.455C142.717 171.455 141.935 171.385 141.002 171.245C140.092 171.128 139.17 170.977 138.237 170.79C137.304 170.58 136.499 170.358 135.822 170.125V144.645H138.727V150.945C139.31 150.805 140.08 150.642 141.037 150.455C141.994 150.268 142.985 150.175 144.012 150.175C146.065 150.175 147.64 150.992 148.737 152.625C149.834 154.235 150.382 156.848 150.382 160.465C150.382 162.705 150.184 164.548 149.787 165.995C149.39 167.418 148.854 168.527 148.177 169.32C147.5 170.113 146.742 170.673 145.902 171C145.085 171.303 144.234 171.455 143.347 171.455ZM143.347 168.865C143.977 168.865 144.467 168.83 144.817 168.76C145.19 168.667 145.494 168.515 145.727 168.305C145.937 168.095 146.17 167.722 146.427 167.185C146.684 166.648 146.894 165.808 147.057 164.665C147.244 163.498 147.337 161.912 147.337 159.905C147.337 157.898 147.232 156.37 147.022 155.32C146.835 154.27 146.567 153.605 146.217 153.325C145.727 152.952 144.899 152.765 143.732 152.765C142.542 152.765 141.515 152.882 140.652 153.115C139.812 153.348 139.17 153.547 138.727 153.71V168.305C139.124 168.398 139.695 168.515 140.442 168.655C141.189 168.795 142.157 168.865 143.347 168.865ZM156.233 147.165V144.19H159.803V147.165H156.233ZM156.548 171V150.63H159.453V171H156.548ZM166.87 171V144.645H169.775V171H166.87ZM184.122 171.49C182.512 171.49 181.089 171.152 179.852 170.475C178.639 169.775 177.694 168.643 177.017 167.08C176.341 165.493 176.002 163.393 176.002 160.78C176.002 158.05 176.352 155.915 177.052 154.375C177.776 152.835 178.744 151.75 179.957 151.12C181.171 150.467 182.536 150.14 184.052 150.14C185.569 150.14 186.852 150.443 187.902 151.05C188.976 151.657 189.792 152.672 190.352 154.095C190.912 155.495 191.192 157.385 191.192 159.765V161.97H179.082C179.012 163.393 179.071 164.525 179.257 165.365C179.444 166.182 179.666 166.812 179.922 167.255C180.179 167.675 180.401 167.967 180.587 168.13C181.217 168.69 182.186 168.97 183.492 168.97C184.402 168.97 185.277 168.888 186.117 168.725C186.957 168.538 187.704 168.34 188.357 168.13C189.034 167.897 189.547 167.733 189.897 167.64L190.632 169.985C190.422 170.078 190.014 170.253 189.407 170.51C188.801 170.743 188.042 170.965 187.132 171.175C186.246 171.385 185.242 171.49 184.122 171.49ZM180.202 154.06C179.456 155.063 179.082 156.918 179.082 159.625L188.217 159.45C188.217 158.097 188.159 156.942 188.042 155.985C187.949 155.005 187.739 154.247 187.412 153.71C187.249 153.453 186.969 153.22 186.572 153.01C186.176 152.777 185.406 152.66 184.262 152.66C183.072 152.66 182.174 152.788 181.567 153.045C180.984 153.302 180.529 153.64 180.202 154.06ZM209.271 171.455C207.637 171.455 206.307 170.895 205.281 169.775C204.277 168.655 203.776 167.057 203.776 164.98C203.776 163.323 204.102 162.028 204.756 161.095C205.432 160.138 206.377 159.462 207.591 159.065C208.804 158.668 210.216 158.47 211.826 158.47H215.536C215.536 157.303 215.501 156.288 215.431 155.425C215.384 154.538 215.197 153.885 214.871 153.465C214.637 153.138 214.311 152.928 213.891 152.835C213.494 152.742 213.074 152.695 212.631 152.695C211.721 152.695 210.822 152.788 209.936 152.975C209.072 153.138 208.279 153.337 207.556 153.57C206.856 153.803 206.296 154.013 205.876 154.2C205.456 154.363 205.246 154.445 205.246 154.445L204.231 152.17C204.231 152.17 204.452 152.077 204.896 151.89C205.339 151.68 205.934 151.447 206.681 151.19C207.427 150.91 208.256 150.677 209.166 150.49C210.099 150.28 211.056 150.175 212.036 150.175C213.622 150.175 214.882 150.49 215.816 151.12C216.749 151.727 217.414 152.59 217.811 153.71C218.231 154.807 218.441 156.102 218.441 157.595V171H216.551L216.131 168.865H215.921C215.594 169.098 215.104 169.425 214.451 169.845C213.821 170.242 213.062 170.615 212.176 170.965C211.289 171.292 210.321 171.455 209.271 171.455ZM209.761 168.9C210.601 168.9 211.394 168.783 212.141 168.55C212.911 168.293 213.587 168.013 214.171 167.71C214.777 167.407 215.232 167.162 215.536 166.975V161.165C215.232 161.118 214.777 161.072 214.171 161.025C213.564 160.955 212.771 160.92 211.791 160.92C209.621 160.92 208.279 161.142 207.766 161.585C207.462 161.818 207.229 162.238 207.066 162.845C206.902 163.428 206.821 164.14 206.821 164.98C206.821 166.357 207.042 167.36 207.486 167.99C207.952 168.597 208.711 168.9 209.761 168.9ZM224.788 176.81V150.63H226.748L227.133 152.695H227.343C227.786 152.368 228.299 152.018 228.883 151.645C229.466 151.248 230.131 150.91 230.878 150.63C231.648 150.327 232.488 150.175 233.398 150.175C235.288 150.175 236.781 150.992 237.878 152.625C238.998 154.235 239.558 156.837 239.558 160.43C239.558 162.693 239.348 164.548 238.928 165.995C238.508 167.418 237.948 168.538 237.248 169.355C236.548 170.148 235.754 170.697 234.868 171C233.981 171.327 233.083 171.49 232.173 171.49C231.309 171.49 230.458 171.432 229.618 171.315C228.801 171.222 228.159 171.128 227.693 171.035V176.81H224.788ZM232.838 168.9C233.094 168.9 233.409 168.877 233.783 168.83C234.179 168.76 234.529 168.597 234.833 168.34C235.159 168.06 235.439 167.628 235.673 167.045C235.929 166.438 236.128 165.563 236.268 164.42C236.408 163.277 236.478 161.76 236.478 159.87C236.478 158.33 236.431 157.128 236.338 156.265C236.268 155.378 236.151 154.725 235.988 154.305C235.848 153.862 235.673 153.547 235.463 153.36C235.346 153.243 235.136 153.115 234.833 152.975C234.553 152.835 234.109 152.765 233.503 152.765C232.756 152.765 231.986 152.893 231.193 153.15C230.423 153.383 229.723 153.652 229.093 153.955C228.463 154.235 227.996 154.468 227.693 154.655V168.165C228.183 168.305 228.918 168.468 229.898 168.655C230.878 168.818 231.858 168.9 232.838 168.9ZM244.988 176.81V150.63H246.948L247.333 152.695H247.543C247.986 152.368 248.499 152.018 249.083 151.645C249.666 151.248 250.331 150.91 251.078 150.63C251.848 150.327 252.688 150.175 253.598 150.175C255.488 150.175 256.981 150.992 258.078 152.625C259.198 154.235 259.758 156.837 259.758 160.43C259.758 162.693 259.548 164.548 259.128 165.995C258.708 167.418 258.148 168.538 257.448 169.355C256.748 170.148 255.954 170.697 255.068 171C254.181 171.327 253.283 171.49 252.373 171.49C251.509 171.49 250.658 171.432 249.818 171.315C249.001 171.222 248.359 171.128 247.893 171.035V176.81H244.988ZM253.038 168.9C253.294 168.9 253.609 168.877 253.983 168.83C254.379 168.76 254.729 168.597 255.033 168.34C255.359 168.06 255.639 167.628 255.873 167.045C256.129 166.438 256.328 165.563 256.468 164.42C256.608 163.277 256.678 161.76 256.678 159.87C256.678 158.33 256.631 157.128 256.538 156.265C256.468 155.378 256.351 154.725 256.188 154.305C256.048 153.862 255.873 153.547 255.663 153.36C255.546 153.243 255.336 153.115 255.033 152.975C254.753 152.835 254.309 152.765 253.703 152.765C252.956 152.765 252.186 152.893 251.393 153.15C250.623 153.383 249.923 153.652 249.293 153.955C248.663 154.235 248.196 154.468 247.893 154.655V168.165C248.383 168.305 249.118 168.468 250.098 168.655C251.078 168.818 252.058 168.9 253.038 168.9ZM279.511 171.455C277.598 171.455 276.046 170.627 274.856 168.97C273.666 167.313 273.071 164.723 273.071 161.2C273.071 158.937 273.269 157.093 273.666 155.67C274.086 154.223 274.646 153.103 275.346 152.31C276.046 151.517 276.816 150.968 277.656 150.665C278.519 150.338 279.406 150.175 280.316 150.175C281.459 150.175 282.416 150.268 283.186 150.455C283.956 150.642 284.528 150.817 284.901 150.98V144.645H287.806V171H285.881L285.496 168.9H285.321C285.018 169.133 284.598 169.46 284.061 169.88C283.524 170.277 282.871 170.638 282.101 170.965C281.354 171.292 280.491 171.455 279.511 171.455ZM279.686 168.865C280.293 168.865 280.934 168.76 281.611 168.55C282.288 168.34 282.918 168.095 283.501 167.815C284.084 167.512 284.551 167.255 284.901 167.045V153.675C284.481 153.512 283.816 153.325 282.906 153.115C282.019 152.882 281.063 152.765 280.036 152.765C278.729 152.765 277.843 153.045 277.376 153.605C277.189 153.862 276.991 154.27 276.781 154.83C276.594 155.39 276.431 156.195 276.291 157.245C276.174 158.272 276.116 159.637 276.116 161.34C276.116 163.253 276.209 164.7 276.396 165.68C276.606 166.66 276.839 167.337 277.096 167.71C277.353 168.083 277.551 168.328 277.691 168.445C277.878 168.608 278.146 168.725 278.496 168.795C278.846 168.842 279.243 168.865 279.686 168.865ZM301.598 171.49C299.988 171.49 298.565 171.152 297.328 170.475C296.115 169.775 295.17 168.643 294.493 167.08C293.816 165.493 293.478 163.393 293.478 160.78C293.478 158.05 293.828 155.915 294.528 154.375C295.251 152.835 296.22 151.75 297.433 151.12C298.646 150.467 300.011 150.14 301.528 150.14C303.045 150.14 304.328 150.443 305.378 151.05C306.451 151.657 307.268 152.672 307.828 154.095C308.388 155.495 308.668 157.385 308.668 159.765V161.97H296.558C296.488 163.393 296.546 164.525 296.733 165.365C296.92 166.182 297.141 166.812 297.398 167.255C297.655 167.675 297.876 167.967 298.063 168.13C298.693 168.69 299.661 168.97 300.968 168.97C301.878 168.97 302.753 168.888 303.593 168.725C304.433 168.538 305.18 168.34 305.833 168.13C306.51 167.897 307.023 167.733 307.373 167.64L308.108 169.985C307.898 170.078 307.49 170.253 306.883 170.51C306.276 170.743 305.518 170.965 304.608 171.175C303.721 171.385 302.718 171.49 301.598 171.49ZM297.678 154.06C296.931 155.063 296.558 156.918 296.558 159.625L305.693 159.45C305.693 158.097 305.635 156.942 305.518 155.985C305.425 155.005 305.215 154.247 304.888 153.71C304.725 153.453 304.445 153.22 304.048 153.01C303.651 152.777 302.881 152.66 301.738 152.66C300.548 152.66 299.65 152.788 299.043 153.045C298.46 153.302 298.005 153.64 297.678 154.06ZM317.358 171L311.443 150.63H314.558L319.143 168.515H319.353L323.903 150.63H327.018L321.138 171H317.358ZM338.17 171.49C336.56 171.49 335.137 171.152 333.9 170.475C332.687 169.775 331.742 168.643 331.065 167.08C330.389 165.493 330.05 163.393 330.05 160.78C330.05 158.05 330.4 155.915 331.1 154.375C331.824 152.835 332.792 151.75 334.005 151.12C335.219 150.467 336.584 150.14 338.1 150.14C339.617 150.14 340.9 150.443 341.95 151.05C343.024 151.657 343.84 152.672 344.4 154.095C344.96 155.495 345.24 157.385 345.24 159.765V161.97H333.13C333.06 163.393 333.119 164.525 333.305 165.365C333.492 166.182 333.714 166.812 333.97 167.255C334.227 167.675 334.449 167.967 334.635 168.13C335.265 168.69 336.234 168.97 337.54 168.97C338.45 168.97 339.325 168.888 340.165 168.725C341.005 168.538 341.752 168.34 342.405 168.13C343.082 167.897 343.595 167.733 343.945 167.64L344.68 169.985C344.47 170.078 344.062 170.253 343.455 170.51C342.849 170.743 342.09 170.965 341.18 171.175C340.294 171.385 339.29 171.49 338.17 171.49ZM334.25 154.06C333.504 155.063 333.13 156.918 333.13 159.625L342.265 159.45C342.265 158.097 342.207 156.942 342.09 155.985C341.997 155.005 341.787 154.247 341.46 153.71C341.297 153.453 341.017 153.22 340.62 153.01C340.224 152.777 339.454 152.66 338.31 152.66C337.12 152.66 336.222 152.788 335.615 153.045C335.032 153.302 334.577 153.64 334.25 154.06ZM351.235 171V144.645H354.14V171H351.235ZM367.928 171.455C365.991 171.455 364.463 171.023 363.343 170.16C362.246 169.297 361.464 168.072 360.998 166.485C360.531 164.898 360.298 163.008 360.298 160.815C360.298 158.622 360.531 156.732 360.998 155.145C361.464 153.558 362.246 152.333 363.343 151.47C364.463 150.607 365.991 150.175 367.928 150.175C369.864 150.175 371.381 150.607 372.478 151.47C373.598 152.333 374.391 153.558 374.858 155.145C375.324 156.732 375.558 158.622 375.558 160.815C375.558 163.008 375.324 164.898 374.858 166.485C374.391 168.072 373.598 169.297 372.478 170.16C371.381 171.023 369.864 171.455 367.928 171.455ZM367.928 168.935C368.814 168.935 369.549 168.83 370.133 168.62C370.739 168.41 371.218 168.025 371.568 167.465C371.941 166.905 372.198 166.088 372.338 165.015C372.501 163.942 372.583 162.542 372.583 160.815C372.583 159.088 372.501 157.688 372.338 156.615C372.198 155.542 371.941 154.725 371.568 154.165C371.218 153.582 370.739 153.197 370.133 153.01C369.549 152.8 368.814 152.695 367.928 152.695C367.041 152.695 366.294 152.8 365.688 153.01C365.104 153.197 364.626 153.582 364.253 154.165C363.903 154.725 363.646 155.542 363.483 156.615C363.319 157.688 363.238 159.088 363.238 160.815C363.238 162.542 363.319 163.942 363.483 165.015C363.646 166.088 363.903 166.905 364.253 167.465C364.626 168.025 365.104 168.41 365.688 168.62C366.294 168.83 367.041 168.935 367.928 168.935ZM380.989 176.81V150.63H382.949L383.334 152.695H383.544C383.987 152.368 384.5 152.018 385.084 151.645C385.667 151.248 386.332 150.91 387.079 150.63C387.849 150.327 388.689 150.175 389.599 150.175C391.489 150.175 392.982 150.992 394.079 152.625C395.199 154.235 395.759 156.837 395.759 160.43C395.759 162.693 395.549 164.548 395.129 165.995C394.709 167.418 394.149 168.538 393.449 169.355C392.749 170.148 391.955 170.697 391.069 171C390.182 171.327 389.284 171.49 388.374 171.49C387.51 171.49 386.659 171.432 385.819 171.315C385.002 171.222 384.36 171.128 383.894 171.035V176.81H380.989ZM389.039 168.9C389.295 168.9 389.61 168.877 389.984 168.83C390.38 168.76 390.73 168.597 391.034 168.34C391.36 168.06 391.64 167.628 391.874 167.045C392.13 166.438 392.329 165.563 392.469 164.42C392.609 163.277 392.679 161.76 392.679 159.87C392.679 158.33 392.632 157.128 392.539 156.265C392.469 155.378 392.352 154.725 392.189 154.305C392.049 153.862 391.874 153.547 391.664 153.36C391.547 153.243 391.337 153.115 391.034 152.975C390.754 152.835 390.31 152.765 389.704 152.765C388.957 152.765 388.187 152.893 387.394 153.15C386.624 153.383 385.924 153.652 385.294 153.955C384.664 154.235 384.197 154.468 383.894 154.655V168.165C384.384 168.305 385.119 168.468 386.099 168.655C387.079 168.818 388.059 168.9 389.039 168.9ZM401.609 147.165V144.19H405.179V147.165H401.609ZM401.924 171V150.63H404.829V171H401.924ZM412.071 171V150.63H414.031L414.346 152.625H414.521C414.731 152.508 415.081 152.322 415.571 152.065C416.061 151.785 416.644 151.505 417.321 151.225C417.998 150.922 418.721 150.677 419.491 150.49C420.261 150.28 421.031 150.175 421.801 150.175C423.084 150.175 424.064 150.502 424.741 151.155C425.418 151.785 425.873 152.648 426.106 153.745C426.363 154.842 426.491 156.078 426.491 157.455V171H423.586V158.47C423.586 157.093 423.563 156.043 423.516 155.32C423.469 154.597 423.318 154.048 423.061 153.675C422.874 153.372 422.606 153.173 422.256 153.08C421.906 152.987 421.533 152.94 421.136 152.94C420.296 152.94 419.433 153.08 418.546 153.36C417.683 153.617 416.924 153.897 416.271 154.2C415.618 154.48 415.186 154.678 414.976 154.795V171H412.071ZM438.412 177.265C437.175 177.265 436.043 177.183 435.017 177.02C433.99 176.857 433.173 176.693 432.567 176.53C431.983 176.39 431.692 176.32 431.692 176.32L432.042 173.695C433.348 173.928 434.69 174.127 436.067 174.29C437.443 174.477 438.773 174.57 440.057 174.57C441.363 174.57 442.238 174.465 442.682 174.255C443.125 174.045 443.347 173.718 443.347 173.275C443.347 172.925 443.242 172.61 443.032 172.33C442.822 172.073 442.39 171.782 441.737 171.455C441.107 171.128 440.162 170.697 438.902 170.16C437.572 169.6 436.603 169.203 435.997 168.97C435.413 168.713 435.04 168.55 434.877 168.48C434.737 168.387 434.667 168.305 434.667 168.235C434.667 168.212 434.76 167.955 434.947 167.465C435.157 166.975 435.39 166.427 435.647 165.82C435.927 165.19 436.16 164.653 436.347 164.21C434.807 163.907 433.558 163.16 432.602 161.97C431.668 160.78 431.202 159.333 431.202 157.63C431.202 155.717 431.575 154.223 432.322 153.15C433.068 152.077 434.048 151.318 435.262 150.875C436.498 150.408 437.828 150.175 439.252 150.175C439.858 150.175 440.57 150.198 441.387 150.245C442.227 150.292 443.043 150.338 443.837 150.385C444.63 150.432 445.295 150.478 445.832 150.525C446.368 150.572 446.637 150.595 446.637 150.595V152.45L444.327 152.8C444.327 152.777 444.42 153.022 444.607 153.535C444.817 154.025 445.015 154.643 445.202 155.39C445.412 156.113 445.517 156.825 445.517 157.525C445.517 158.855 445.225 160.045 444.642 161.095C444.058 162.122 443.218 162.938 442.122 163.545C441.025 164.128 439.707 164.42 438.167 164.42C438.097 164.793 438.015 165.237 437.922 165.75C437.828 166.24 437.782 166.532 437.782 166.625C437.782 166.672 437.852 166.742 437.992 166.835C438.155 166.905 438.458 167.033 438.902 167.22C439.368 167.383 440.045 167.663 440.932 168.06C442.285 168.62 443.323 169.168 444.047 169.705C444.77 170.242 445.272 170.767 445.552 171.28C445.832 171.793 445.972 172.307 445.972 172.82C445.972 174.243 445.272 175.34 443.872 176.11C442.472 176.88 440.652 177.265 438.412 177.265ZM438.342 161.9C439.905 161.9 441.025 161.597 441.702 160.99C442.378 160.383 442.717 159.205 442.717 157.455C442.717 156.125 442.635 155.063 442.472 154.27C442.308 153.453 442.157 153.01 442.017 152.94C441.97 152.893 441.772 152.858 441.422 152.835C441.072 152.788 440.687 152.765 440.267 152.765C439.847 152.742 439.473 152.73 439.147 152.73C438.843 152.707 438.692 152.695 438.692 152.695C437.595 152.695 436.697 152.823 435.997 153.08C435.32 153.337 434.818 153.803 434.492 154.48C434.188 155.157 434.037 156.148 434.037 157.455C434.037 159.182 434.363 160.36 435.017 160.99C435.693 161.597 436.802 161.9 438.342 161.9Z" fill="#0E0F0F"/>
<path d="M95.585 247.455C94.3717 247.455 93.2167 247.292 92.12 246.965C91.0233 246.615 90.055 245.985 89.215 245.075C88.375 244.165 87.71 242.882 87.22 241.225C86.7533 239.545 86.52 237.387 86.52 234.75C86.52 232.16 86.7417 230.048 87.185 228.415C87.6517 226.758 88.305 225.487 89.145 224.6C89.985 223.69 90.9883 223.072 92.155 222.745C93.3217 222.395 94.6167 222.22 96.04 222.22C96.7867 222.22 97.545 222.255 98.315 222.325C99.085 222.372 99.7967 222.442 100.45 222.535C101.127 222.628 101.652 222.722 102.025 222.815L101.675 225.335C101.232 225.288 100.52 225.207 99.54 225.09C98.5833 224.95 97.3467 224.88 95.83 224.88C94.6633 224.88 93.7183 224.95 92.995 225.09C92.295 225.207 91.77 225.452 91.42 225.825C90.9767 226.268 90.5683 227.19 90.195 228.59C89.845 229.99 89.67 232.02 89.67 234.68C89.67 236.71 89.775 238.355 89.985 239.615C90.2183 240.875 90.475 241.832 90.755 242.485C91.035 243.115 91.28 243.547 91.49 243.78C91.77 244.083 92.225 244.352 92.855 244.585C93.5083 244.795 94.465 244.9 95.725 244.9C96.5417 244.9 97.2533 244.853 97.86 244.76C98.49 244.667 98.9917 244.538 99.365 244.375V236.675L95.655 236.5V234.33H102.165V246.09C102.165 246.09 101.885 246.207 101.325 246.44C100.788 246.65 100.018 246.872 99.015 247.105C98.035 247.338 96.8917 247.455 95.585 247.455ZM115.169 247.455C113.232 247.455 111.704 247.023 110.584 246.16C109.487 245.297 108.706 244.072 108.239 242.485C107.772 240.898 107.539 239.008 107.539 236.815C107.539 234.622 107.772 232.732 108.239 231.145C108.706 229.558 109.487 228.333 110.584 227.47C111.704 226.607 113.232 226.175 115.169 226.175C117.106 226.175 118.622 226.607 119.719 227.47C120.839 228.333 121.632 229.558 122.099 231.145C122.566 232.732 122.799 234.622 122.799 236.815C122.799 239.008 122.566 240.898 122.099 242.485C121.632 244.072 120.839 245.297 119.719 246.16C118.622 247.023 117.106 247.455 115.169 247.455ZM115.169 244.935C116.056 244.935 116.791 244.83 117.374 244.62C117.981 244.41 118.459 244.025 118.809 243.465C119.182 242.905 119.439 242.088 119.579 241.015C119.742 239.942 119.824 238.542 119.824 236.815C119.824 235.088 119.742 233.688 119.579 232.615C119.439 231.542 119.182 230.725 118.809 230.165C118.459 229.582 117.981 229.197 117.374 229.01C116.791 228.8 116.056 228.695 115.169 228.695C114.282 228.695 113.536 228.8 112.929 229.01C112.346 229.197 111.867 229.582 111.494 230.165C111.144 230.725 110.887 231.542 110.724 232.615C110.561 233.688 110.479 235.088 110.479 236.815C110.479 238.542 110.561 239.942 110.724 241.015C110.887 242.088 111.144 242.905 111.494 243.465C111.867 244.025 112.346 244.41 112.929 244.62C113.536 244.83 114.282 244.935 115.169 244.935ZM134.11 247.49C133.107 247.49 132.232 247.327 131.485 247C130.738 246.65 130.155 245.997 129.735 245.04C129.338 244.06 129.14 242.613 129.14 240.7V230.095H126.83V228.275L129.245 227.785L130.015 223.025H132.045V227.82H136.105V230.165H132.045V240.91C132.045 242.193 132.08 243.127 132.15 243.71C132.22 244.293 132.395 244.667 132.675 244.83C132.978 244.97 133.48 245.04 134.18 245.04C134.74 245.04 135.195 245.028 135.545 245.005C135.895 244.982 136.07 244.97 136.07 244.97V247.315C136.07 247.315 135.895 247.338 135.545 247.385C135.195 247.455 134.717 247.49 134.11 247.49ZM153.797 247.455C152.164 247.455 150.834 246.895 149.807 245.775C148.804 244.655 148.302 243.057 148.302 240.98C148.302 239.323 148.629 238.028 149.282 237.095C149.959 236.138 150.904 235.462 152.117 235.065C153.33 234.668 154.742 234.47 156.352 234.47H160.062C160.062 233.303 160.027 232.288 159.957 231.425C159.91 230.538 159.724 229.885 159.397 229.465C159.164 229.138 158.837 228.928 158.417 228.835C158.02 228.742 157.6 228.695 157.157 228.695C156.247 228.695 155.349 228.788 154.462 228.975C153.599 229.138 152.805 229.337 152.082 229.57C151.382 229.803 150.822 230.013 150.402 230.2C149.982 230.363 149.772 230.445 149.772 230.445L148.757 228.17C148.757 228.17 148.979 228.077 149.422 227.89C149.865 227.68 150.46 227.447 151.207 227.19C151.954 226.91 152.782 226.677 153.692 226.49C154.625 226.28 155.582 226.175 156.562 226.175C158.149 226.175 159.409 226.49 160.342 227.12C161.275 227.727 161.94 228.59 162.337 229.71C162.757 230.807 162.967 232.102 162.967 233.595V247H161.077L160.657 244.865H160.447C160.12 245.098 159.63 245.425 158.977 245.845C158.347 246.242 157.589 246.615 156.702 246.965C155.815 247.292 154.847 247.455 153.797 247.455ZM154.287 244.9C155.127 244.9 155.92 244.783 156.667 244.55C157.437 244.293 158.114 244.013 158.697 243.71C159.304 243.407 159.759 243.162 160.062 242.975V237.165C159.759 237.118 159.304 237.072 158.697 237.025C158.09 236.955 157.297 236.92 156.317 236.92C154.147 236.92 152.805 237.142 152.292 237.585C151.989 237.818 151.755 238.238 151.592 238.845C151.429 239.428 151.347 240.14 151.347 240.98C151.347 242.357 151.569 243.36 152.012 243.99C152.479 244.597 153.237 244.9 154.287 244.9ZM185.247 247.455C183.66 247.455 182.26 247.093 181.047 246.37C179.834 245.647 178.889 244.503 178.212 242.94C177.535 241.353 177.197 239.288 177.197 236.745C177.197 234.668 177.419 232.942 177.862 231.565C178.329 230.188 178.959 229.115 179.752 228.345C180.545 227.552 181.479 226.992 182.552 226.665C183.625 226.338 184.769 226.175 185.982 226.175C186.869 226.175 187.767 226.233 188.677 226.35C189.61 226.467 190.369 226.595 190.952 226.735L190.602 229.185C190.159 229.138 189.459 229.057 188.502 228.94C187.545 228.8 186.519 228.73 185.422 228.73C184.559 228.73 183.824 228.8 183.217 228.94C182.634 229.08 182.179 229.313 181.852 229.64C181.409 230.13 181.024 231.028 180.697 232.335C180.394 233.618 180.242 235.158 180.242 236.955C180.242 238.612 180.37 239.953 180.627 240.98C180.884 241.983 181.187 242.753 181.537 243.29C181.887 243.803 182.202 244.165 182.482 244.375C182.669 244.515 182.914 244.643 183.217 244.76C183.544 244.877 183.999 244.935 184.582 244.935C185.259 244.935 185.947 244.853 186.647 244.69C187.347 244.527 187.989 244.34 188.572 244.13C189.155 243.92 189.622 243.733 189.972 243.57C190.345 243.407 190.532 243.325 190.532 243.325L191.442 245.6C191.442 245.6 191.185 245.752 190.672 246.055C190.159 246.358 189.435 246.673 188.502 247C187.569 247.303 186.484 247.455 185.247 247.455ZM203.502 247.49C201.892 247.49 200.469 247.152 199.232 246.475C198.019 245.775 197.074 244.643 196.397 243.08C195.721 241.493 195.382 239.393 195.382 236.78C195.382 234.05 195.732 231.915 196.432 230.375C197.156 228.835 198.124 227.75 199.337 227.12C200.551 226.467 201.916 226.14 203.432 226.14C204.949 226.14 206.232 226.443 207.282 227.05C208.356 227.657 209.172 228.672 209.732 230.095C210.292 231.495 210.572 233.385 210.572 235.765V237.97H198.462C198.392 239.393 198.451 240.525 198.637 241.365C198.824 242.182 199.046 242.812 199.302 243.255C199.559 243.675 199.781 243.967 199.967 244.13C200.597 244.69 201.566 244.97 202.872 244.97C203.782 244.97 204.657 244.888 205.497 244.725C206.337 244.538 207.084 244.34 207.737 244.13C208.414 243.897 208.927 243.733 209.277 243.64L210.012 245.985C209.802 246.078 209.394 246.253 208.787 246.51C208.181 246.743 207.422 246.965 206.512 247.175C205.626 247.385 204.622 247.49 203.502 247.49ZM199.582 230.06C198.836 231.063 198.462 232.918 198.462 235.625L207.597 235.45C207.597 234.097 207.539 232.942 207.422 231.985C207.329 231.005 207.119 230.247 206.792 229.71C206.629 229.453 206.349 229.22 205.952 229.01C205.556 228.777 204.786 228.66 203.642 228.66C202.452 228.66 201.554 228.788 200.947 229.045C200.364 229.302 199.909 229.64 199.582 230.06ZM216.392 247V226.63H218.247L218.632 228.695H218.842C218.842 228.695 219.017 228.567 219.367 228.31C219.741 228.053 220.219 227.762 220.802 227.435C221.386 227.108 222.004 226.817 222.657 226.56C223.334 226.303 223.964 226.175 224.547 226.175C224.897 226.175 225.224 226.21 225.527 226.28C225.831 226.327 225.982 226.35 225.982 226.35L225.737 229.15C225.737 229.15 225.586 229.138 225.282 229.115C224.979 229.092 224.699 229.08 224.442 229.08C223.789 229.08 223.124 229.173 222.447 229.36C221.794 229.547 221.187 229.78 220.627 230.06C220.067 230.34 219.624 230.608 219.297 230.865V247H216.392ZM235.521 247.49C234.518 247.49 233.643 247.327 232.896 247C232.149 246.65 231.566 245.997 231.146 245.04C230.749 244.06 230.551 242.613 230.551 240.7V230.095H228.241V228.275L230.656 227.785L231.426 223.025H233.456V227.82H237.516V230.165H233.456V240.91C233.456 242.193 233.491 243.127 233.561 243.71C233.631 244.293 233.806 244.667 234.086 244.83C234.389 244.97 234.891 245.04 235.591 245.04C236.151 245.04 236.606 245.028 236.956 245.005C237.306 244.982 237.481 244.97 237.481 244.97V247.315C237.481 247.315 237.306 247.338 236.956 247.385C236.606 247.455 236.128 247.49 235.521 247.49ZM242.81 223.165V220.19H246.38V223.165H242.81ZM243.125 247V226.63H246.03V247H243.125ZM253.762 247V230.06H251.487V228.275L253.762 227.82C253.786 225.067 254.334 223.107 255.407 221.94C256.504 220.773 257.962 220.19 259.782 220.19C260.132 220.19 260.541 220.202 261.007 220.225C261.497 220.248 261.742 220.26 261.742 220.26L261.532 222.71C261.532 222.71 261.369 222.71 261.042 222.71C260.739 222.687 260.389 222.675 259.992 222.675C259.619 222.652 259.316 222.64 259.082 222.64C258.452 222.64 257.962 222.768 257.612 223.025C257.262 223.258 257.017 223.748 256.877 224.495C256.737 225.218 256.656 226.327 256.632 227.82H261.112V230.165H256.667V247H253.762ZM264.958 223.165V220.19H268.528V223.165H264.958ZM265.273 247V226.63H268.178V247H265.273ZM282.386 247.455C280.799 247.455 279.399 247.093 278.186 246.37C276.972 245.647 276.027 244.503 275.351 242.94C274.674 241.353 274.336 239.288 274.336 236.745C274.336 234.668 274.557 232.942 275.001 231.565C275.467 230.188 276.097 229.115 276.891 228.345C277.684 227.552 278.617 226.992 279.691 226.665C280.764 226.338 281.907 226.175 283.121 226.175C284.007 226.175 284.906 226.233 285.816 226.35C286.749 226.467 287.507 226.595 288.091 226.735L287.741 229.185C287.297 229.138 286.597 229.057 285.641 228.94C284.684 228.8 283.657 228.73 282.561 228.73C281.697 228.73 280.962 228.8 280.356 228.94C279.772 229.08 279.317 229.313 278.991 229.64C278.547 230.13 278.162 231.028 277.836 232.335C277.532 233.618 277.381 235.158 277.381 236.955C277.381 238.612 277.509 239.953 277.766 240.98C278.022 241.983 278.326 242.753 278.676 243.29C279.026 243.803 279.341 244.165 279.621 244.375C279.807 244.515 280.052 244.643 280.356 244.76C280.682 244.877 281.137 244.935 281.721 244.935C282.397 244.935 283.086 244.853 283.786 244.69C284.486 244.527 285.127 244.34 285.711 244.13C286.294 243.92 286.761 243.733 287.111 243.57C287.484 243.407 287.671 243.325 287.671 243.325L288.581 245.6C288.581 245.6 288.324 245.752 287.811 246.055C287.297 246.358 286.574 246.673 285.641 247C284.707 247.303 283.622 247.455 282.386 247.455ZM297.386 247.455C295.753 247.455 294.423 246.895 293.396 245.775C292.393 244.655 291.891 243.057 291.891 240.98C291.891 239.323 292.218 238.028 292.871 237.095C293.548 236.138 294.493 235.462 295.706 235.065C296.919 234.668 298.331 234.47 299.941 234.47H303.651C303.651 233.303 303.616 232.288 303.546 231.425C303.499 230.538 303.313 229.885 302.986 229.465C302.753 229.138 302.426 228.928 302.006 228.835C301.609 228.742 301.189 228.695 300.746 228.695C299.836 228.695 298.938 228.788 298.051 228.975C297.188 229.138 296.394 229.337 295.671 229.57C294.971 229.803 294.411 230.013 293.991 230.2C293.571 230.363 293.361 230.445 293.361 230.445L292.346 228.17C292.346 228.17 292.568 228.077 293.011 227.89C293.454 227.68 294.049 227.447 294.796 227.19C295.543 226.91 296.371 226.677 297.281 226.49C298.214 226.28 299.171 226.175 300.151 226.175C301.738 226.175 302.998 226.49 303.931 227.12C304.864 227.727 305.529 228.59 305.926 229.71C306.346 230.807 306.556 232.102 306.556 233.595V247H304.666L304.246 244.865H304.036C303.709 245.098 303.219 245.425 302.566 245.845C301.936 246.242 301.178 246.615 300.291 246.965C299.404 247.292 298.436 247.455 297.386 247.455ZM297.876 244.9C298.716 244.9 299.509 244.783 300.256 244.55C301.026 244.293 301.703 244.013 302.286 243.71C302.893 243.407 303.348 243.162 303.651 242.975V237.165C303.348 237.118 302.893 237.072 302.286 237.025C301.679 236.955 300.886 236.92 299.906 236.92C297.736 236.92 296.394 237.142 295.881 237.585C295.578 237.818 295.344 238.238 295.181 238.845C295.018 239.428 294.936 240.14 294.936 240.98C294.936 242.357 295.158 243.36 295.601 243.99C296.068 244.597 296.826 244.9 297.876 244.9ZM318.783 247.49C317.779 247.49 316.904 247.327 316.158 247C315.411 246.65 314.828 245.997 314.408 245.04C314.011 244.06 313.813 242.613 313.813 240.7V230.095H311.503V228.275L313.918 227.785L314.688 223.025H316.718V227.82H320.778V230.165H316.718V240.91C316.718 242.193 316.753 243.127 316.823 243.71C316.893 244.293 317.068 244.667 317.348 244.83C317.651 244.97 318.153 245.04 318.853 245.04C319.413 245.04 319.868 245.028 320.218 245.005C320.568 244.982 320.743 244.97 320.743 244.97V247.315C320.743 247.315 320.568 247.338 320.218 247.385C319.868 247.455 319.389 247.49 318.783 247.49ZM333.317 247.49C331.707 247.49 330.283 247.152 329.047 246.475C327.833 245.775 326.888 244.643 326.212 243.08C325.535 241.493 325.197 239.393 325.197 236.78C325.197 234.05 325.547 231.915 326.247 230.375C326.97 228.835 327.938 227.75 329.152 227.12C330.365 226.467 331.73 226.14 333.247 226.14C334.763 226.14 336.047 226.443 337.097 227.05C338.17 227.657 338.987 228.672 339.547 230.095C340.107 231.495 340.387 233.385 340.387 235.765V237.97H328.277C328.207 239.393 328.265 240.525 328.452 241.365C328.638 242.182 328.86 242.812 329.117 243.255C329.373 243.675 329.595 243.967 329.782 244.13C330.412 244.69 331.38 244.97 332.687 244.97C333.597 244.97 334.472 244.888 335.312 244.725C336.152 244.538 336.898 244.34 337.552 244.13C338.228 243.897 338.742 243.733 339.092 243.64L339.827 245.985C339.617 246.078 339.208 246.253 338.602 246.51C337.995 246.743 337.237 246.965 336.327 247.175C335.44 247.385 334.437 247.49 333.317 247.49ZM329.397 230.06C328.65 231.063 328.277 232.918 328.277 235.625L337.412 235.45C337.412 234.097 337.353 232.942 337.237 231.985C337.143 231.005 336.933 230.247 336.607 229.71C336.443 229.453 336.163 229.22 335.767 229.01C335.37 228.777 334.6 228.66 333.457 228.66C332.267 228.66 331.368 228.788 330.762 229.045C330.178 229.302 329.723 229.64 329.397 230.06Z" fill="#0E0F0F"/>
<line x1="1.68298" y1="239" x2="1.68298" y2="32" stroke="black" stroke-width="2" stroke-linecap="round"/>
<line x1="29.0084" y1="32" x2="3.00571" y2="32" stroke="black" stroke-width="2" stroke-linecap="round"/>
<path d="M58.7735 165L53 159.226L47.2265 165L53 170.774L58.7735 165ZM2 164C1.44772 164 1 164.448 1 165C1 165.552 1.44772 166 2 166V164ZM53 164H2V166H53V164Z" fill="black"/>
<path d="M58.7735 240L53 234.226L47.2265 240L53 245.774L58.7735 240ZM2 239C1.44772 239 1 239.448 1 240C1 240.552 1.44772 241 2 241V239ZM53 239H2V241H53V239Z" fill="black"/>
<path d="M699.9 51.65C698.3 51.65 696.767 51.4833 695.3 51.15C693.833 50.85 692.517 50.5 691.35 50.1C690.217 49.7 689.317 49.35 688.65 49.05C687.983 48.7167 687.65 48.55 687.65 48.55C687.65 48.55 687.75 48.25 687.95 47.65C688.15 47.0167 688.367 46.3 688.6 45.5C688.867 44.6667 689.1 43.95 689.3 43.35C689.5 42.75 689.6 42.45 689.6 42.45C689.6 42.45 689.933 42.5833 690.6 42.85C691.3 43.0833 692.2 43.3667 693.3 43.7C694.433 44 695.65 44.2833 696.95 44.55C698.283 44.7833 699.6 44.9 700.9 44.9C701.533 44.9 702.033 44.85 702.4 44.75C702.767 44.6167 703.05 44.4833 703.25 44.35C703.617 44.1167 703.9 43.75 704.1 43.25C704.333 42.75 704.45 42.0333 704.45 41.1C704.45 40.2667 704.117 39.5667 703.45 39C702.783 38.4 701.917 37.85 700.85 37.35C699.783 36.85 698.633 36.3167 697.4 35.75C696.333 35.25 695.267 34.7333 694.2 34.2C693.133 33.6333 692.167 32.9667 691.3 32.2C690.433 31.4333 689.733 30.4833 689.2 29.35C688.667 28.1833 688.4 26.75 688.4 25.05C688.4 23.2167 688.85 21.5667 689.75 20.1C690.683 18.6 692.067 17.4167 693.9 16.55C695.767 15.65 698.067 15.2 700.8 15.2C702 15.2 703.2 15.2833 704.4 15.45C705.633 15.6167 706.767 15.8167 707.8 16.05C708.833 16.25 709.65 16.4333 710.25 16.6C710.883 16.7667 711.2 16.85 711.2 16.85L709.95 23.1C709.95 23.1 709.617 23.05 708.95 22.95C708.317 22.8167 707.483 22.6833 706.45 22.55C705.417 22.3833 704.317 22.25 703.15 22.15C701.983 22.0167 700.883 21.95 699.85 21.95C699.217 21.95 698.717 22 698.35 22.1C697.983 22.2 697.667 22.3333 697.4 22.5C697.167 22.6667 696.933 22.9333 696.7 23.3C696.5 23.6333 696.4 24.2167 696.4 25.05C696.4 26.0167 696.9 26.8333 697.9 27.5C698.933 28.1667 700.167 28.8333 701.6 29.5C702.733 30.0333 703.917 30.5833 705.15 31.15C706.417 31.7167 707.6 32.4 708.7 33.2C709.8 34 710.7 35.0167 711.4 36.25C712.1 37.45 712.45 38.9667 712.45 40.8C712.45 42.9667 711.917 44.8667 710.85 46.5C709.817 48.1333 708.35 49.4 706.45 50.3C704.583 51.2 702.4 51.65 699.9 51.65ZM730.616 51.7C727.916 51.7 725.532 51.2 723.466 50.2C721.432 49.2 719.849 47.5667 718.716 45.3C717.582 43.0333 717.016 40.0167 717.016 36.25C717.016 32.3167 717.616 29.25 718.816 27.05C720.016 24.8167 721.632 23.2333 723.666 22.3C725.699 21.3667 727.982 20.9 730.516 20.9C733.116 20.9 735.316 21.35 737.116 22.25C738.916 23.15 740.282 24.6167 741.216 26.65C742.182 28.6833 742.666 31.4167 742.666 34.85V39H724.866C724.966 41.9 725.482 43.7667 726.416 44.6C726.749 44.9 727.166 45.1333 727.666 45.3C728.199 45.4667 728.882 45.55 729.716 45.55C730.616 45.55 731.616 45.4667 732.716 45.3C733.816 45.1 734.882 44.8667 735.916 44.6C736.982 44.3333 737.899 44.1 738.666 43.9C739.432 43.6667 739.949 43.5 740.216 43.4L742.116 49C741.816 49.1333 741.082 49.4333 739.916 49.9C738.782 50.3333 737.399 50.7333 735.766 51.1C734.166 51.5 732.449 51.7 730.616 51.7ZM726.216 28.3C725.416 29.1333 724.966 30.8333 724.866 33.4L734.766 33.2C734.699 30.5333 734.399 28.8333 733.866 28.1C733.632 27.8333 733.282 27.5833 732.816 27.35C732.349 27.1167 731.582 27 730.516 27C729.249 27 728.299 27.1333 727.666 27.4C727.032 27.6333 726.549 27.9333 726.216 28.3ZM748.782 51V12.95H756.532V51H748.782ZM765.019 51V28.85H761.619V24L765.069 23.3C765.302 20.4333 765.885 18.2 766.819 16.6C767.785 15 769.035 13.8833 770.569 13.25C772.135 12.6167 773.902 12.3 775.869 12.3C776.435 12.3 777.069 12.3167 777.769 12.35C778.502 12.3833 779.119 12.4167 779.619 12.45C780.152 12.4833 780.419 12.5 780.419 12.5L779.869 18.65C779.869 18.65 779.652 18.6333 779.219 18.6C778.785 18.5667 778.235 18.5333 777.569 18.5C776.935 18.4667 776.319 18.45 775.719 18.45C775.019 18.45 774.452 18.55 774.019 18.75C773.619 18.9167 773.319 19.3333 773.119 20C772.919 20.6333 772.802 21.65 772.769 23.05H779.369V29H772.769V51H765.019ZM780.266 37.95V31.35H793.166V37.95H780.266ZM810.45 51.7C807.75 51.7 805.366 51.2 803.3 50.2C801.266 49.2 799.683 47.5667 798.55 45.3C797.416 43.0333 796.85 40.0167 796.85 36.25C796.85 32.3167 797.45 29.25 798.65 27.05C799.85 24.8167 801.466 23.2333 803.5 22.3C805.533 21.3667 807.816 20.9 810.35 20.9C812.95 20.9 815.15 21.35 816.95 22.25C818.75 23.15 820.116 24.6167 821.05 26.65C822.016 28.6833 822.5 31.4167 822.5 34.85V39H804.7C804.8 41.9 805.316 43.7667 806.25 44.6C806.583 44.9 807 45.1333 807.5 45.3C808.033 45.4667 808.716 45.55 809.55 45.55C810.45 45.55 811.45 45.4667 812.55 45.3C813.65 45.1 814.716 44.8667 815.75 44.6C816.816 44.3333 817.733 44.1 818.5 43.9C819.266 43.6667 819.783 43.5 820.05 43.4L821.95 49C821.65 49.1333 820.916 49.4333 819.75 49.9C818.616 50.3333 817.233 50.7333 815.6 51.1C814 51.5 812.283 51.7 810.45 51.7ZM806.05 28.3C805.25 29.1333 804.8 30.8333 804.7 33.4L814.6 33.2C814.533 30.5333 814.233 28.8333 813.7 28.1C813.466 27.8333 813.116 27.5833 812.65 27.35C812.183 27.1167 811.416 27 810.35 27C809.083 27 808.133 27.1333 807.5 27.4C806.866 27.6333 806.383 27.9333 806.05 28.3ZM837.466 51.65C835.599 51.65 833.899 51.1167 832.366 50.05C830.833 48.9833 829.599 47.3333 828.666 45.1C827.766 42.8667 827.316 40 827.316 36.5C827.316 33.3333 827.666 30.7333 828.366 28.7C829.099 26.6667 830.049 25.0833 831.216 23.95C832.416 22.8167 833.699 22.0333 835.066 21.6C836.466 21.1667 837.833 20.95 839.166 20.95C840.099 20.95 840.999 21.0167 841.866 21.15C842.733 21.25 843.449 21.3667 844.016 21.5C844.583 21.6333 844.866 21.7 844.866 21.7V12.95H852.616V51H847.616L846.816 48.15H846.516C845.849 48.5833 845.049 49.0833 844.116 49.65C843.183 50.1833 842.149 50.65 841.016 51.05C839.916 51.45 838.733 51.65 837.466 51.65ZM838.816 45.35C839.383 45.35 840.016 45.2667 840.716 45.1C841.416 44.9 842.083 44.6667 842.716 44.4C843.349 44.1333 843.866 43.9167 844.266 43.75C844.666 43.55 844.866 43.45 844.866 43.45V28.35C844.866 28.35 844.583 28.2667 844.016 28.1C843.483 27.9 842.799 27.7167 841.966 27.55C841.133 27.3833 840.266 27.3 839.366 27.3C838.066 27.3 837.166 27.5667 836.666 28.1C836.333 28.4667 835.999 29.2833 835.666 30.55C835.366 31.7833 835.216 33.8167 835.216 36.65C835.216 38.7833 835.283 40.4167 835.416 41.55C835.583 42.65 835.783 43.4167 836.016 43.85C836.249 44.2833 836.449 44.5833 836.616 44.75C836.883 44.9833 837.216 45.15 837.616 45.25C838.016 45.3167 838.416 45.35 838.816 45.35ZM867.813 51.65C865.579 51.65 863.863 51.1833 862.663 50.25C861.496 49.2833 860.696 47.9833 860.263 46.35C859.829 44.6833 859.612 42.8167 859.612 40.75V21.6H867.363V40C867.363 41.4333 867.413 42.45 867.513 43.05C867.613 43.65 867.779 44.0667 868.013 44.3C868.446 44.7 869.146 44.9 870.113 44.9C871.079 44.9 872.129 44.6833 873.263 44.25C874.429 43.8167 875.413 43.3333 876.213 42.8V21.6H883.963V51H879.013L878.063 47.95H877.763C876.429 48.75 874.896 49.5667 873.163 50.4C871.463 51.2333 869.679 51.65 867.813 51.65ZM903.604 51.65C901.004 51.65 898.704 51.1333 896.704 50.1C894.704 49.0333 893.138 47.3667 892.004 45.1C890.871 42.8333 890.304 39.8667 890.304 36.2C890.304 33.1667 890.688 30.6667 891.454 28.7C892.221 26.7 893.271 25.15 894.604 24.05C895.971 22.9167 897.538 22.1167 899.304 21.65C901.071 21.1833 902.938 20.95 904.904 20.95C906.771 20.95 908.454 21.0833 909.954 21.35C911.488 21.6167 912.621 21.85 913.354 22.05L912.504 27.9C911.538 27.7333 910.271 27.5667 908.704 27.4C907.171 27.2 905.721 27.1 904.354 27.1C902.954 27.1 901.954 27.2167 901.354 27.45C900.788 27.65 900.354 27.9 900.054 28.2C898.821 29.5 898.204 32.1667 898.204 36.2C898.204 38.1333 898.321 39.6833 898.554 40.85C898.821 41.9833 899.138 42.85 899.504 43.45C899.904 44.05 900.271 44.4833 900.604 44.75C900.804 44.8833 901.104 45.05 901.504 45.25C901.938 45.4167 902.521 45.5 903.254 45.5C904.054 45.5 904.938 45.3833 905.904 45.15C906.904 44.8833 907.871 44.6 908.804 44.3C909.738 43.9667 910.504 43.6833 911.104 43.45C911.704 43.2167 912.004 43.1 912.004 43.1L914.104 48.6C914.104 48.6 913.671 48.8667 912.804 49.4C911.971 49.9 910.771 50.4 909.204 50.9C907.638 51.4 905.771 51.65 903.604 51.65ZM926.202 51.65C924.602 51.65 923.152 51.2833 921.852 50.55C920.585 49.7833 919.568 48.6833 918.802 47.25C918.035 45.8167 917.652 44.0833 917.652 42.05C917.652 39.6167 918.202 37.7167 919.302 36.35C920.402 34.95 921.952 33.95 923.952 33.35C925.952 32.75 928.318 32.45 931.052 32.45H934.802C934.802 31.0167 934.735 30 934.602 29.4C934.468 28.8 934.318 28.3667 934.152 28.1C934.018 27.8667 933.752 27.65 933.352 27.45C932.985 27.25 932.218 27.15 931.052 27.15C929.852 27.15 928.602 27.25 927.302 27.45C926.035 27.65 924.852 27.8833 923.752 28.15C922.652 28.4167 921.752 28.65 921.052 28.85C920.352 29.05 920.002 29.15 920.002 29.15L918.402 23.55C918.402 23.55 918.735 23.4167 919.402 23.15C920.102 22.8833 921.035 22.5833 922.202 22.25C923.402 21.9167 924.752 21.6167 926.252 21.35C927.785 21.0833 929.402 20.95 931.102 20.95C933.968 20.95 936.235 21.4 937.902 22.3C939.568 23.1667 940.752 24.4333 941.452 26.1C942.185 27.7333 942.552 29.7 942.552 32V51H937.652L936.652 47.75H936.352C936.352 47.75 936.052 47.95 935.452 48.35C934.885 48.75 934.118 49.2 933.152 49.7C932.185 50.2 931.102 50.65 929.902 51.05C928.702 51.45 927.468 51.65 926.202 51.65ZM928.452 45.3C929.385 45.3 930.335 45.15 931.302 44.85C932.302 44.5167 933.135 44.2 933.802 43.9C934.468 43.5667 934.802 43.4 934.802 43.4V38.2C934.802 38.2 934.402 38.1667 933.602 38.1C932.802 38 931.768 37.95 930.502 37.95C928.302 37.95 926.935 38.2 926.402 38.7C926.168 38.9 925.968 39.25 925.802 39.75C925.635 40.2167 925.552 40.8833 925.552 41.75C925.552 42.9833 925.768 43.8833 926.202 44.45C926.668 45.0167 927.418 45.3 928.452 45.3ZM959.105 51.65C957.338 51.65 955.822 51.3833 954.555 50.85C953.322 50.3167 952.372 49.3 951.705 47.8C951.072 46.2667 950.755 44.05 950.755 41.15V28.85H947.355V24L951.105 23.3L952.255 16.35H958.605V23.05H964.605V29H958.505V41.35C958.505 42.4833 958.572 43.3167 958.705 43.85C958.872 44.3833 959.105 44.7167 959.405 44.85C959.738 44.9833 960.155 45.05 960.655 45.05C961.155 45.05 961.705 45.0333 962.305 45C962.905 44.9333 963.422 44.8833 963.855 44.85C964.288 44.8167 964.505 44.8 964.505 44.8V51.1C964.505 51.1 963.972 51.1833 962.905 51.35C961.838 51.55 960.572 51.65 959.105 51.65ZM969.925 17.6V12.2H978.075V17.6H969.925ZM970.125 51V21.6H977.875V51H970.125ZM997.102 51.65C993.869 51.65 991.302 51.0333 989.402 49.8C987.502 48.5333 986.152 46.75 985.352 44.45C984.552 42.15 984.152 39.4333 984.152 36.3C984.152 33.1333 984.552 30.4167 985.352 28.15C986.152 25.85 987.502 24.0833 989.402 22.85C991.302 21.5833 993.869 20.95 997.102 20.95C1000.37 20.95 1002.94 21.5833 1004.8 22.85C1006.67 24.0833 1007.99 25.85 1008.75 28.15C1009.55 30.4167 1009.95 33.1333 1009.95 36.3C1009.95 39.4333 1009.55 42.15 1008.75 44.45C1007.99 46.75 1006.67 48.5333 1004.8 49.8C1002.94 51.0333 1000.37 51.65 997.102 51.65ZM997.102 45.75C998.402 45.75 999.402 45.5 1000.1 45C1000.84 44.4667 1001.34 43.5167 1001.6 42.15C1001.9 40.7833 1002.05 38.8333 1002.05 36.3C1002.05 33.7333 1001.9 31.7667 1001.6 30.4C1001.3 29.0333 1000.79 28.1 1000.05 27.6C999.352 27.1 998.369 26.85 997.102 26.85C995.835 26.85 994.819 27.1 994.052 27.6C993.319 28.1 992.802 29.0333 992.502 30.4C992.202 31.7667 992.052 33.7333 992.052 36.3C992.052 38.8333 992.202 40.7833 992.502 42.15C992.802 43.5167 993.319 44.4667 994.052 45C994.785 45.5 995.802 45.75 997.102 45.75ZM1016.32 51V21.6H1021.27L1022.17 24.55H1022.47C1023.83 23.75 1025.4 22.95 1027.17 22.15C1028.97 21.35 1030.97 20.95 1033.17 20.95C1035.23 20.95 1036.8 21.4167 1037.87 22.35C1038.93 23.2833 1039.67 24.5667 1040.07 26.2C1040.47 27.8333 1040.67 29.6833 1040.67 31.75V51H1032.92V33.2C1032.92 31.8333 1032.88 30.8 1032.82 30.1C1032.75 29.4 1032.55 28.85 1032.22 28.45C1031.82 27.95 1031.15 27.7 1030.22 27.7C1029.25 27.7 1028.18 27.9167 1027.02 28.35C1025.85 28.75 1024.87 29.2333 1024.07 29.8V51H1016.32Z" fill="#CA1817"/>
<path d="M737.865 171L733.455 146.675H736.465L739.86 168.41H740.105L743.99 152.38H748.19L752.075 168.41H752.32L755.715 146.675H758.725L754.35 171H750.08L746.195 154.97H745.985L742.065 171H737.865ZM768.002 171.455C766.648 171.455 765.435 171.303 764.362 171C763.312 170.72 762.448 170.417 761.772 170.09C761.118 169.74 760.675 169.507 760.442 169.39L761.562 167.15C761.772 167.243 762.227 167.43 762.927 167.71C763.627 167.99 764.467 168.247 765.447 168.48C766.427 168.713 767.43 168.83 768.457 168.83C769.903 168.83 770.883 168.48 771.397 167.78C771.933 167.057 772.202 165.948 772.202 164.455C772.202 162.495 771.817 161.142 771.047 160.395C770.277 159.648 769.075 159.275 767.442 159.275H764.187V156.965C765.61 156.848 766.8 156.732 767.757 156.615C768.713 156.498 769.472 156.312 770.032 156.055C770.592 155.798 770.988 155.413 771.222 154.9C771.455 154.363 771.572 153.64 771.572 152.73C771.572 151.237 771.327 150.222 770.837 149.685C770.533 149.335 770.043 149.09 769.367 148.95C768.69 148.81 767.862 148.74 766.882 148.74C766.462 148.74 766.042 148.752 765.622 148.775C765.225 148.798 764.747 148.845 764.187 148.915C763.65 148.962 762.95 149.043 762.087 149.16L761.737 146.78C762.157 146.663 762.67 146.57 763.277 146.5C763.907 146.407 764.56 146.337 765.237 146.29C765.937 146.243 766.567 146.22 767.127 146.22C768.55 146.22 769.822 146.407 770.942 146.78C772.062 147.153 772.948 147.783 773.602 148.67C774.255 149.557 774.582 150.782 774.582 152.345C774.582 153.488 774.418 154.422 774.092 155.145C773.765 155.845 773.368 156.393 772.902 156.79C772.458 157.163 772.027 157.432 771.607 157.595C771.187 157.735 770.872 157.828 770.662 157.875V158.015C771.128 158.085 771.618 158.225 772.132 158.435C772.668 158.645 773.182 158.983 773.672 159.45C774.162 159.893 774.558 160.5 774.862 161.27C775.165 162.04 775.317 163.02 775.317 164.21C775.317 165.517 775.083 166.718 774.617 167.815C774.15 168.912 773.38 169.798 772.307 170.475C771.233 171.128 769.798 171.455 768.002 171.455ZM795.272 171.49C794.315 171.49 793.394 171.373 792.507 171.14C791.62 170.93 790.827 170.673 790.127 170.37C789.45 170.067 788.914 169.81 788.517 169.6C788.12 169.367 787.922 169.25 787.922 169.25C787.922 169.25 787.969 169.133 788.062 168.9C788.179 168.643 788.307 168.363 788.447 168.06C788.587 167.733 788.704 167.453 788.797 167.22C788.914 166.987 788.972 166.87 788.972 166.87C788.972 166.87 789.159 166.975 789.532 167.185C789.929 167.372 790.454 167.593 791.107 167.85C791.76 168.083 792.507 168.305 793.347 168.515C794.187 168.702 795.062 168.795 795.972 168.795C796.555 168.795 797.01 168.748 797.337 168.655C797.687 168.538 797.932 168.433 798.072 168.34C798.539 168.013 798.9 167.57 799.157 167.01C799.414 166.427 799.542 165.68 799.542 164.77C799.542 163.883 799.355 163.148 798.982 162.565C798.609 161.982 798.107 161.492 797.477 161.095C796.87 160.698 796.205 160.348 795.482 160.045C794.549 159.648 793.674 159.252 792.857 158.855C792.04 158.458 791.317 158.003 790.687 157.49C790.057 156.977 789.567 156.335 789.217 155.565C788.867 154.772 788.692 153.792 788.692 152.625C788.692 151.412 788.96 150.327 789.497 149.37C790.034 148.39 790.839 147.62 791.912 147.06C792.985 146.477 794.315 146.185 795.902 146.185C796.929 146.185 797.874 146.255 798.737 146.395C799.6 146.512 800.289 146.64 800.802 146.78C801.339 146.897 801.607 146.955 801.607 146.955L801.117 149.475C801.117 149.475 800.825 149.428 800.242 149.335C799.682 149.218 798.959 149.113 798.072 149.02C797.185 148.903 796.252 148.845 795.272 148.845C794.689 148.845 794.222 148.88 793.872 148.95C793.545 149.02 793.254 149.137 792.997 149.3C792.694 149.463 792.402 149.802 792.122 150.315C791.865 150.805 791.737 151.482 791.737 152.345C791.737 153.302 791.982 154.083 792.472 154.69C792.962 155.297 793.604 155.798 794.397 156.195C795.19 156.568 796.03 156.942 796.917 157.315C797.85 157.688 798.749 158.143 799.612 158.68C800.475 159.193 801.187 159.893 801.747 160.78C802.307 161.667 802.587 162.868 802.587 164.385C802.587 165.808 802.272 167.057 801.642 168.13C801.035 169.18 800.184 170.008 799.087 170.615C797.99 171.198 796.719 171.49 795.272 171.49ZM815.038 171.455C813.451 171.455 812.051 171.093 810.838 170.37C809.625 169.647 808.68 168.503 808.003 166.94C807.326 165.353 806.988 163.288 806.988 160.745C806.988 158.668 807.21 156.942 807.653 155.565C808.12 154.188 808.75 153.115 809.543 152.345C810.336 151.552 811.27 150.992 812.343 150.665C813.416 150.338 814.56 150.175 815.773 150.175C816.66 150.175 817.558 150.233 818.468 150.35C819.401 150.467 820.16 150.595 820.743 150.735L820.393 153.185C819.95 153.138 819.25 153.057 818.293 152.94C817.336 152.8 816.31 152.73 815.213 152.73C814.35 152.73 813.615 152.8 813.008 152.94C812.425 153.08 811.97 153.313 811.643 153.64C811.2 154.13 810.815 155.028 810.488 156.335C810.185 157.618 810.033 159.158 810.033 160.955C810.033 162.612 810.161 163.953 810.418 164.98C810.675 165.983 810.978 166.753 811.328 167.29C811.678 167.803 811.993 168.165 812.273 168.375C812.46 168.515 812.705 168.643 813.008 168.76C813.335 168.877 813.79 168.935 814.373 168.935C815.05 168.935 815.738 168.853 816.438 168.69C817.138 168.527 817.78 168.34 818.363 168.13C818.946 167.92 819.413 167.733 819.763 167.57C820.136 167.407 820.323 167.325 820.323 167.325L821.233 169.6C821.233 169.6 820.976 169.752 820.463 170.055C819.95 170.358 819.226 170.673 818.293 171C817.36 171.303 816.275 171.455 815.038 171.455ZM825.628 171V144.645H828.533V151.89C829.467 151.493 830.505 151.108 831.648 150.735C832.792 150.362 833.807 150.175 834.693 150.175C836.77 150.175 838.17 150.805 838.893 152.065C839.64 153.302 840.013 155.098 840.013 157.455V171H837.108V158.47C837.108 157.163 837.062 156.137 836.968 155.39C836.875 154.643 836.688 154.072 836.408 153.675C836.175 153.348 835.883 153.15 835.533 153.08C835.207 152.987 834.798 152.94 834.308 152.94C833.678 152.94 832.99 153.022 832.243 153.185C831.497 153.348 830.797 153.547 830.143 153.78C829.49 153.99 828.965 154.188 828.568 154.375L828.533 171H825.628ZM853.173 171.455C851.236 171.455 849.708 171.023 848.588 170.16C847.491 169.297 846.709 168.072 846.243 166.485C845.776 164.898 845.543 163.008 845.543 160.815C845.543 158.622 845.776 156.732 846.243 155.145C846.709 153.558 847.491 152.333 848.588 151.47C849.708 150.607 851.236 150.175 853.173 150.175C855.109 150.175 856.626 150.607 857.723 151.47C858.843 152.333 859.636 153.558 860.103 155.145C860.569 156.732 860.803 158.622 860.803 160.815C860.803 163.008 860.569 164.898 860.103 166.485C859.636 168.072 858.843 169.297 857.723 170.16C856.626 171.023 855.109 171.455 853.173 171.455ZM853.173 168.935C854.059 168.935 854.794 168.83 855.378 168.62C855.984 168.41 856.463 168.025 856.813 167.465C857.186 166.905 857.443 166.088 857.583 165.015C857.746 163.942 857.828 162.542 857.828 160.815C857.828 159.088 857.746 157.688 857.583 156.615C857.443 155.542 857.186 154.725 856.813 154.165C856.463 153.582 855.984 153.197 855.378 153.01C854.794 152.8 854.059 152.695 853.173 152.695C852.286 152.695 851.539 152.8 850.933 153.01C850.349 153.197 849.871 153.582 849.498 154.165C849.148 154.725 848.891 155.542 848.728 156.615C848.564 157.688 848.483 159.088 848.483 160.815C848.483 162.542 848.564 163.942 848.728 165.015C848.891 166.088 849.148 166.905 849.498 167.465C849.871 168.025 850.349 168.41 850.933 168.62C851.539 168.83 852.286 168.935 853.173 168.935ZM873.339 171.455C871.402 171.455 869.874 171.023 868.754 170.16C867.657 169.297 866.875 168.072 866.409 166.485C865.942 164.898 865.709 163.008 865.709 160.815C865.709 158.622 865.942 156.732 866.409 155.145C866.875 153.558 867.657 152.333 868.754 151.47C869.874 150.607 871.402 150.175 873.339 150.175C875.275 150.175 876.792 150.607 877.889 151.47C879.009 152.333 879.802 153.558 880.269 155.145C880.735 156.732 880.969 158.622 880.969 160.815C880.969 163.008 880.735 164.898 880.269 166.485C879.802 168.072 879.009 169.297 877.889 170.16C876.792 171.023 875.275 171.455 873.339 171.455ZM873.339 168.935C874.225 168.935 874.96 168.83 875.544 168.62C876.15 168.41 876.629 168.025 876.979 167.465C877.352 166.905 877.609 166.088 877.749 165.015C877.912 163.942 877.994 162.542 877.994 160.815C877.994 159.088 877.912 157.688 877.749 156.615C877.609 155.542 877.352 154.725 876.979 154.165C876.629 153.582 876.15 153.197 875.544 153.01C874.96 152.8 874.225 152.695 873.339 152.695C872.452 152.695 871.705 152.8 871.099 153.01C870.515 153.197 870.037 153.582 869.664 154.165C869.314 154.725 869.057 155.542 868.894 156.615C868.73 157.688 868.649 159.088 868.649 160.815C868.649 162.542 868.73 163.942 868.894 165.015C869.057 166.088 869.314 166.905 869.664 167.465C870.037 168.025 870.515 168.41 871.099 168.62C871.705 168.83 872.452 168.935 873.339 168.935ZM887.135 171V144.645H890.04V171H887.135ZM907.02 171L902.995 150.63H905.97L909.05 168.725H909.225L912.76 153.325H917.03L920.565 168.725H920.74L923.82 150.63H926.795L922.77 171H918.5L915 155.6H914.79L911.29 171H907.02ZM938.225 171.49C936.615 171.49 935.192 171.152 933.955 170.475C932.742 169.775 931.797 168.643 931.12 167.08C930.443 165.493 930.105 163.393 930.105 160.78C930.105 158.05 930.455 155.915 931.155 154.375C931.878 152.835 932.847 151.75 934.06 151.12C935.273 150.467 936.638 150.14 938.155 150.14C939.672 150.14 940.955 150.443 942.005 151.05C943.078 151.657 943.895 152.672 944.455 154.095C945.015 155.495 945.295 157.385 945.295 159.765V161.97H933.185C933.115 163.393 933.173 164.525 933.36 165.365C933.547 166.182 933.768 166.812 934.025 167.255C934.282 167.675 934.503 167.967 934.69 168.13C935.32 168.69 936.288 168.97 937.595 168.97C938.505 168.97 939.38 168.888 940.22 168.725C941.06 168.538 941.807 168.34 942.46 168.13C943.137 167.897 943.65 167.733 944 167.64L944.735 169.985C944.525 170.078 944.117 170.253 943.51 170.51C942.903 170.743 942.145 170.965 941.235 171.175C940.348 171.385 939.345 171.49 938.225 171.49ZM934.305 154.06C933.558 155.063 933.185 156.918 933.185 159.625L942.32 159.45C942.32 158.097 942.262 156.942 942.145 155.985C942.052 155.005 941.842 154.247 941.515 153.71C941.352 153.453 941.072 153.22 940.675 153.01C940.278 152.777 939.508 152.66 938.365 152.66C937.175 152.66 936.277 152.788 935.67 153.045C935.087 153.302 934.632 153.64 934.305 154.06ZM958.255 171.455C957.625 171.455 956.843 171.385 955.91 171.245C955 171.128 954.078 170.977 953.145 170.79C952.212 170.58 951.407 170.358 950.73 170.125V144.645H953.635V150.945C954.218 150.805 954.988 150.642 955.945 150.455C956.902 150.268 957.893 150.175 958.92 150.175C960.973 150.175 962.548 150.992 963.645 152.625C964.742 154.235 965.29 156.848 965.29 160.465C965.29 162.705 965.092 164.548 964.695 165.995C964.298 167.418 963.762 168.527 963.085 169.32C962.408 170.113 961.65 170.673 960.81 171C959.993 171.303 959.142 171.455 958.255 171.455ZM958.255 168.865C958.885 168.865 959.375 168.83 959.725 168.76C960.098 168.667 960.402 168.515 960.635 168.305C960.845 168.095 961.078 167.722 961.335 167.185C961.592 166.648 961.802 165.808 961.965 164.665C962.152 163.498 962.245 161.912 962.245 159.905C962.245 157.898 962.14 156.37 961.93 155.32C961.743 154.27 961.475 153.605 961.125 153.325C960.635 152.952 959.807 152.765 958.64 152.765C957.45 152.765 956.423 152.882 955.56 153.115C954.72 153.348 954.078 153.547 953.635 153.71V168.305C954.032 168.398 954.603 168.515 955.35 168.655C956.097 168.795 957.065 168.865 958.255 168.865ZM985.044 171.455C983.131 171.455 981.579 170.627 980.389 168.97C979.199 167.313 978.604 164.723 978.604 161.2C978.604 158.937 978.803 157.093 979.199 155.67C979.619 154.223 980.179 153.103 980.879 152.31C981.579 151.517 982.349 150.968 983.189 150.665C984.053 150.338 984.939 150.175 985.849 150.175C986.993 150.175 987.949 150.268 988.719 150.455C989.489 150.642 990.061 150.817 990.434 150.98V144.645H993.339V171H991.414L991.029 168.9H990.854C990.551 169.133 990.131 169.46 989.594 169.88C989.058 170.277 988.404 170.638 987.634 170.965C986.888 171.292 986.024 171.455 985.044 171.455ZM985.219 168.865C985.826 168.865 986.468 168.76 987.144 168.55C987.821 168.34 988.451 168.095 989.034 167.815C989.618 167.512 990.084 167.255 990.434 167.045V153.675C990.014 153.512 989.349 153.325 988.439 153.115C987.553 152.882 986.596 152.765 985.569 152.765C984.263 152.765 983.376 153.045 982.909 153.605C982.723 153.862 982.524 154.27 982.314 154.83C982.128 155.39 981.964 156.195 981.824 157.245C981.708 158.272 981.649 159.637 981.649 161.34C981.649 163.253 981.743 164.7 981.929 165.68C982.139 166.66 982.373 167.337 982.629 167.71C982.886 168.083 983.084 168.328 983.224 168.445C983.411 168.608 983.679 168.725 984.029 168.795C984.379 168.842 984.776 168.865 985.219 168.865ZM1007.13 171.49C1005.52 171.49 1004.1 171.152 1002.86 170.475C1001.65 169.775 1000.7 168.643 1000.03 167.08C999.35 165.493 999.011 163.393 999.011 160.78C999.011 158.05 999.361 155.915 1000.06 154.375C1000.78 152.835 1001.75 151.75 1002.97 151.12C1004.18 150.467 1005.54 150.14 1007.06 150.14C1008.58 150.14 1009.86 150.443 1010.91 151.05C1011.98 151.657 1012.8 152.672 1013.36 154.095C1013.92 155.495 1014.2 157.385 1014.2 159.765V161.97H1002.09C1002.02 163.393 1002.08 164.525 1002.27 165.365C1002.45 166.182 1002.67 166.812 1002.93 167.255C1003.19 167.675 1003.41 167.967 1003.6 168.13C1004.23 168.69 1005.19 168.97 1006.5 168.97C1007.41 168.97 1008.29 168.888 1009.13 168.725C1009.97 168.538 1010.71 168.34 1011.37 168.13C1012.04 167.897 1012.56 167.733 1012.91 167.64L1013.64 169.985C1013.43 170.078 1013.02 170.253 1012.42 170.51C1011.81 170.743 1011.05 170.965 1010.14 171.175C1009.25 171.385 1008.25 171.49 1007.13 171.49ZM1003.21 154.06C1002.46 155.063 1002.09 156.918 1002.09 159.625L1011.23 159.45C1011.23 158.097 1011.17 156.942 1011.05 155.985C1010.96 155.005 1010.75 154.247 1010.42 153.71C1010.26 153.453 1009.98 153.22 1009.58 153.01C1009.18 152.777 1008.41 152.66 1007.27 152.66C1006.08 152.66 1005.18 152.788 1004.58 153.045C1003.99 153.302 1003.54 153.64 1003.21 154.06ZM1022.89 171L1016.98 150.63H1020.09L1024.68 168.515H1024.89L1029.44 150.63H1032.55L1026.67 171H1022.89ZM1043.7 171.49C1042.09 171.49 1040.67 171.152 1039.43 170.475C1038.22 169.775 1037.28 168.643 1036.6 167.08C1035.92 165.493 1035.58 163.393 1035.58 160.78C1035.58 158.05 1035.93 155.915 1036.63 154.375C1037.36 152.835 1038.33 151.75 1039.54 151.12C1040.75 150.467 1042.12 150.14 1043.63 150.14C1045.15 150.14 1046.43 150.443 1047.48 151.05C1048.56 151.657 1049.37 152.672 1049.93 154.095C1050.49 155.495 1050.77 157.385 1050.77 159.765V161.97H1038.66C1038.59 163.393 1038.65 164.525 1038.84 165.365C1039.03 166.182 1039.25 166.812 1039.5 167.255C1039.76 167.675 1039.98 167.967 1040.17 168.13C1040.8 168.69 1041.77 168.97 1043.07 168.97C1043.98 168.97 1044.86 168.888 1045.7 168.725C1046.54 168.538 1047.29 168.34 1047.94 168.13C1048.62 167.897 1049.13 167.733 1049.48 167.64L1050.21 169.985C1050 170.078 1049.6 170.253 1048.99 170.51C1048.38 170.743 1047.62 170.965 1046.71 171.175C1045.83 171.385 1044.82 171.49 1043.7 171.49ZM1039.78 154.06C1039.04 155.063 1038.66 156.918 1038.66 159.625L1047.8 159.45C1047.8 158.097 1047.74 156.942 1047.62 155.985C1047.53 155.005 1047.32 154.247 1046.99 153.71C1046.83 153.453 1046.55 153.22 1046.15 153.01C1045.76 152.777 1044.99 152.66 1043.84 152.66C1042.65 152.66 1041.76 152.788 1041.15 153.045C1040.57 153.302 1040.11 153.64 1039.78 154.06ZM1056.77 171V144.645H1059.67V171H1056.77ZM1073.46 171.455C1071.52 171.455 1070 171.023 1068.88 170.16C1067.78 169.297 1067 168.072 1066.53 166.485C1066.06 164.898 1065.83 163.008 1065.83 160.815C1065.83 158.622 1066.06 156.732 1066.53 155.145C1067 153.558 1067.78 152.333 1068.88 151.47C1070 150.607 1071.52 150.175 1073.46 150.175C1075.4 150.175 1076.91 150.607 1078.01 151.47C1079.13 152.333 1079.92 153.558 1080.39 155.145C1080.86 156.732 1081.09 158.622 1081.09 160.815C1081.09 163.008 1080.86 164.898 1080.39 166.485C1079.92 168.072 1079.13 169.297 1078.01 170.16C1076.91 171.023 1075.4 171.455 1073.46 171.455ZM1073.46 168.935C1074.35 168.935 1075.08 168.83 1075.67 168.62C1076.27 168.41 1076.75 168.025 1077.1 167.465C1077.47 166.905 1077.73 166.088 1077.87 165.015C1078.03 163.942 1078.12 162.542 1078.12 160.815C1078.12 159.088 1078.03 157.688 1077.87 156.615C1077.73 155.542 1077.47 154.725 1077.1 154.165C1076.75 153.582 1076.27 153.197 1075.67 153.01C1075.08 152.8 1074.35 152.695 1073.46 152.695C1072.57 152.695 1071.83 152.8 1071.22 153.01C1070.64 153.197 1070.16 153.582 1069.79 154.165C1069.44 154.725 1069.18 155.542 1069.02 156.615C1068.85 157.688 1068.77 159.088 1068.77 160.815C1068.77 162.542 1068.85 163.942 1069.02 165.015C1069.18 166.088 1069.44 166.905 1069.79 167.465C1070.16 168.025 1070.64 168.41 1071.22 168.62C1071.83 168.83 1072.57 168.935 1073.46 168.935ZM1086.52 176.81V150.63H1088.48L1088.87 152.695H1089.08C1089.52 152.368 1090.03 152.018 1090.62 151.645C1091.2 151.248 1091.87 150.91 1092.61 150.63C1093.38 150.327 1094.22 150.175 1095.13 150.175C1097.02 150.175 1098.52 150.992 1099.61 152.625C1100.73 154.235 1101.29 156.837 1101.29 160.43C1101.29 162.693 1101.08 164.548 1100.66 165.995C1100.24 167.418 1099.68 168.538 1098.98 169.355C1098.28 170.148 1097.49 170.697 1096.6 171C1095.72 171.327 1094.82 171.49 1093.91 171.49C1093.04 171.49 1092.19 171.432 1091.35 171.315C1090.54 171.222 1089.89 171.128 1089.43 171.035V176.81H1086.52ZM1094.57 168.9C1094.83 168.9 1095.14 168.877 1095.52 168.83C1095.91 168.76 1096.26 168.597 1096.57 168.34C1096.89 168.06 1097.17 167.628 1097.41 167.045C1097.66 166.438 1097.86 165.563 1098 164.42C1098.14 163.277 1098.21 161.76 1098.21 159.87C1098.21 158.33 1098.17 157.128 1098.07 156.265C1098 155.378 1097.89 154.725 1097.72 154.305C1097.58 153.862 1097.41 153.547 1097.2 153.36C1097.08 153.243 1096.87 153.115 1096.57 152.975C1096.29 152.835 1095.84 152.765 1095.24 152.765C1094.49 152.765 1093.72 152.893 1092.93 153.15C1092.16 153.383 1091.46 153.652 1090.83 153.955C1090.2 154.235 1089.73 154.468 1089.43 154.655V168.165C1089.92 168.305 1090.65 168.468 1091.63 168.655C1092.61 168.818 1093.59 168.9 1094.57 168.9ZM1107.14 147.165V144.19H1110.71V147.165H1107.14ZM1107.46 171V150.63H1110.36V171H1107.46ZM1117.6 171V150.63H1119.56L1119.88 152.625H1120.05C1120.26 152.508 1120.61 152.322 1121.1 152.065C1121.59 151.785 1122.18 151.505 1122.85 151.225C1123.53 150.922 1124.25 150.677 1125.02 150.49C1125.79 150.28 1126.56 150.175 1127.33 150.175C1128.62 150.175 1129.6 150.502 1130.27 151.155C1130.95 151.785 1131.41 152.648 1131.64 153.745C1131.9 154.842 1132.02 156.078 1132.02 157.455V171H1129.12V158.47C1129.12 157.093 1129.1 156.043 1129.05 155.32C1129 154.597 1128.85 154.048 1128.59 153.675C1128.41 153.372 1128.14 153.173 1127.79 153.08C1127.44 152.987 1127.07 152.94 1126.67 152.94C1125.83 152.94 1124.97 153.08 1124.08 153.36C1123.22 153.617 1122.46 153.897 1121.8 154.2C1121.15 154.48 1120.72 154.678 1120.51 154.795V171H1117.6ZM1143.94 177.265C1142.71 177.265 1141.58 177.183 1140.55 177.02C1139.52 176.857 1138.71 176.693 1138.1 176.53C1137.52 176.39 1137.22 176.32 1137.22 176.32L1137.57 173.695C1138.88 173.928 1140.22 174.127 1141.6 174.29C1142.98 174.477 1144.31 174.57 1145.59 174.57C1146.9 174.57 1147.77 174.465 1148.21 174.255C1148.66 174.045 1148.88 173.718 1148.88 173.275C1148.88 172.925 1148.77 172.61 1148.56 172.33C1148.35 172.073 1147.92 171.782 1147.27 171.455C1146.64 171.128 1145.69 170.697 1144.43 170.16C1143.1 169.6 1142.14 169.203 1141.53 168.97C1140.95 168.713 1140.57 168.55 1140.41 168.48C1140.27 168.387 1140.2 168.305 1140.2 168.235C1140.2 168.212 1140.29 167.955 1140.48 167.465C1140.69 166.975 1140.92 166.427 1141.18 165.82C1141.46 165.19 1141.69 164.653 1141.88 164.21C1140.34 163.907 1139.09 163.16 1138.13 161.97C1137.2 160.78 1136.73 159.333 1136.73 157.63C1136.73 155.717 1137.11 154.223 1137.85 153.15C1138.6 152.077 1139.58 151.318 1140.79 150.875C1142.03 150.408 1143.36 150.175 1144.78 150.175C1145.39 150.175 1146.1 150.198 1146.92 150.245C1147.76 150.292 1148.58 150.338 1149.37 150.385C1150.16 150.432 1150.83 150.478 1151.36 150.525C1151.9 150.572 1152.17 150.595 1152.17 150.595V152.45L1149.86 152.8C1149.86 152.777 1149.95 153.022 1150.14 153.535C1150.35 154.025 1150.55 154.643 1150.73 155.39C1150.94 156.113 1151.05 156.825 1151.05 157.525C1151.05 158.855 1150.76 160.045 1150.17 161.095C1149.59 162.122 1148.75 162.938 1147.65 163.545C1146.56 164.128 1145.24 164.42 1143.7 164.42C1143.63 164.793 1143.55 165.237 1143.45 165.75C1143.36 166.24 1143.31 166.532 1143.31 166.625C1143.31 166.672 1143.38 166.742 1143.52 166.835C1143.69 166.905 1143.99 167.033 1144.43 167.22C1144.9 167.383 1145.58 167.663 1146.46 168.06C1147.82 168.62 1148.86 169.168 1149.58 169.705C1150.3 170.242 1150.8 170.767 1151.08 171.28C1151.36 171.793 1151.5 172.307 1151.5 172.82C1151.5 174.243 1150.8 175.34 1149.4 176.11C1148 176.88 1146.18 177.265 1143.94 177.265ZM1143.87 161.9C1145.44 161.9 1146.56 161.597 1147.23 160.99C1147.91 160.383 1148.25 159.205 1148.25 157.455C1148.25 156.125 1148.17 155.063 1148 154.27C1147.84 153.453 1147.69 153.01 1147.55 152.94C1147.5 152.893 1147.3 152.858 1146.95 152.835C1146.6 152.788 1146.22 152.765 1145.8 152.765C1145.38 152.742 1145.01 152.73 1144.68 152.73C1144.38 152.707 1144.22 152.695 1144.22 152.695C1143.13 152.695 1142.23 152.823 1141.53 153.08C1140.85 153.337 1140.35 153.803 1140.02 154.48C1139.72 155.157 1139.57 156.148 1139.57 157.455C1139.57 159.182 1139.9 160.36 1140.55 160.99C1141.23 161.597 1142.33 161.9 1143.87 161.9Z" fill="#0E0F0F"/>
<path d="M798.512 224.351C798.134 224.351 797.783 224.315 797.459 224.243C797.153 224.189 796.928 224.153 796.784 224.135L797.054 222.191C797.216 222.209 797.468 222.245 797.81 222.299C798.152 222.353 798.53 222.38 798.944 222.38C799.322 222.38 799.637 222.299 799.889 222.137C800.141 221.957 800.33 221.552 800.456 220.922C800.6 220.292 800.672 219.311 800.672 217.979V205.235H802.94V217.628C802.94 219.302 802.742 220.634 802.346 221.624C801.968 222.596 801.446 223.298 800.78 223.73C800.114 224.144 799.358 224.351 798.512 224.351ZM811.24 224.351C809.98 224.351 808.954 223.919 808.162 223.055C807.388 222.191 807.001 220.958 807.001 219.356C807.001 218.078 807.253 217.079 807.757 216.359C808.279 215.621 809.008 215.099 809.944 214.793C810.88 214.487 811.969 214.334 813.211 214.334H816.073C816.073 213.434 816.046 212.651 815.992 211.985C815.956 211.301 815.812 210.797 815.56 210.473C815.38 210.221 815.128 210.059 814.804 209.987C814.498 209.915 814.174 209.879 813.832 209.879C813.13 209.879 812.437 209.951 811.753 210.095C811.087 210.221 810.475 210.374 809.917 210.554C809.377 210.734 808.945 210.896 808.621 211.04C808.297 211.166 808.135 211.229 808.135 211.229L807.352 209.474C807.352 209.474 807.523 209.402 807.865 209.258C808.207 209.096 808.666 208.916 809.242 208.718C809.818 208.502 810.457 208.322 811.159 208.178C811.879 208.016 812.617 207.935 813.373 207.935C814.597 207.935 815.569 208.178 816.289 208.664C817.009 209.132 817.522 209.798 817.828 210.662C818.152 211.508 818.314 212.507 818.314 213.659V224H816.856L816.532 222.353H816.37C816.118 222.533 815.74 222.785 815.236 223.109C814.75 223.415 814.165 223.703 813.481 223.973C812.797 224.225 812.05 224.351 811.24 224.351ZM811.618 222.38C812.266 222.38 812.878 222.29 813.454 222.11C814.048 221.912 814.57 221.696 815.02 221.462C815.488 221.228 815.839 221.039 816.073 220.895V216.413C815.839 216.377 815.488 216.341 815.02 216.305C814.552 216.251 813.94 216.224 813.184 216.224C811.51 216.224 810.475 216.395 810.079 216.737C809.845 216.917 809.665 217.241 809.539 217.709C809.413 218.159 809.35 218.708 809.35 219.356C809.35 220.418 809.521 221.192 809.863 221.678C810.223 222.146 810.808 222.38 811.618 222.38ZM825.856 224L821.293 208.286H823.696L827.233 222.083H827.395L830.905 208.286H833.308L828.772 224H825.856ZM839.4 224.351C838.14 224.351 837.114 223.919 836.322 223.055C835.548 222.191 835.161 220.958 835.161 219.356C835.161 218.078 835.413 217.079 835.917 216.359C836.439 215.621 837.168 215.099 838.104 214.793C839.04 214.487 840.129 214.334 841.371 214.334H844.233C844.233 213.434 844.206 212.651 844.152 211.985C844.116 211.301 843.972 210.797 843.72 210.473C843.54 210.221 843.288 210.059 842.964 209.987C842.658 209.915 842.334 209.879 841.992 209.879C841.29 209.879 840.597 209.951 839.913 210.095C839.247 210.221 838.635 210.374 838.077 210.554C837.537 210.734 837.105 210.896 836.781 211.04C836.457 211.166 836.295 211.229 836.295 211.229L835.512 209.474C835.512 209.474 835.683 209.402 836.025 209.258C836.367 209.096 836.826 208.916 837.402 208.718C837.978 208.502 838.617 208.322 839.319 208.178C840.039 208.016 840.777 207.935 841.533 207.935C842.757 207.935 843.729 208.178 844.449 208.664C845.169 209.132 845.682 209.798 845.988 210.662C846.312 211.508 846.474 212.507 846.474 213.659V224H845.016L844.692 222.353H844.53C844.278 222.533 843.9 222.785 843.396 223.109C842.91 223.415 842.325 223.703 841.641 223.973C840.957 224.225 840.21 224.351 839.4 224.351ZM839.778 222.38C840.426 222.38 841.038 222.29 841.614 222.11C842.208 221.912 842.73 221.696 843.18 221.462C843.648 221.228 843.999 221.039 844.233 220.895V216.413C843.999 216.377 843.648 216.341 843.18 216.305C842.712 216.251 842.1 216.224 841.344 216.224C839.67 216.224 838.635 216.395 838.239 216.737C838.005 216.917 837.825 217.241 837.699 217.709C837.573 218.159 837.51 218.708 837.51 219.356C837.51 220.418 837.681 221.192 838.023 221.678C838.383 222.146 838.968 222.38 839.778 222.38ZM855.717 224.378C854.979 224.378 854.268 224.288 853.584 224.108C852.9 223.946 852.288 223.748 851.748 223.514C851.226 223.28 850.812 223.082 850.506 222.92C850.2 222.74 850.047 222.65 850.047 222.65C850.047 222.65 850.083 222.56 850.155 222.38C850.245 222.182 850.344 221.966 850.452 221.732C850.56 221.48 850.65 221.264 850.722 221.084C850.812 220.904 850.857 220.814 850.857 220.814C850.857 220.814 851.001 220.895 851.289 221.057C851.595 221.201 852 221.372 852.504 221.57C853.008 221.75 853.584 221.921 854.232 222.083C854.88 222.227 855.555 222.299 856.257 222.299C856.707 222.299 857.058 222.263 857.31 222.191C857.58 222.101 857.769 222.02 857.877 221.948C858.237 221.696 858.516 221.354 858.714 220.922C858.912 220.472 859.011 219.896 859.011 219.194C859.011 218.51 858.867 217.943 858.579 217.493C858.291 217.043 857.904 216.665 857.418 216.359C856.95 216.053 856.437 215.783 855.879 215.549C855.159 215.243 854.484 214.937 853.854 214.631C853.224 214.325 852.666 213.974 852.18 213.578C851.694 213.182 851.316 212.687 851.046 212.093C850.776 211.481 850.641 210.725 850.641 209.825C850.641 208.889 850.848 208.052 851.262 207.314C851.676 206.558 852.297 205.964 853.125 205.532C853.953 205.082 854.979 204.857 856.203 204.857C856.995 204.857 857.724 204.911 858.39 205.019C859.056 205.109 859.587 205.208 859.983 205.316C860.397 205.406 860.604 205.451 860.604 205.451L860.226 207.395C860.226 207.395 860.001 207.359 859.551 207.287C859.119 207.197 858.561 207.116 857.877 207.044C857.193 206.954 856.473 206.909 855.717 206.909C855.267 206.909 854.907 206.936 854.637 206.99C854.385 207.044 854.16 207.134 853.962 207.26C853.728 207.386 853.503 207.647 853.287 208.043C853.089 208.421 852.99 208.943 852.99 209.609C852.99 210.347 853.179 210.95 853.557 211.418C853.935 211.886 854.43 212.273 855.042 212.579C855.654 212.867 856.302 213.155 856.986 213.443C857.706 213.731 858.399 214.082 859.065 214.496C859.731 214.892 860.28 215.432 860.712 216.116C861.144 216.8 861.36 217.727 861.36 218.897C861.36 219.995 861.117 220.958 860.631 221.786C860.163 222.596 859.506 223.235 858.66 223.703C857.814 224.153 856.833 224.378 855.717 224.378ZM870.965 224.351C869.741 224.351 868.661 224.072 867.725 223.514C866.789 222.956 866.06 222.074 865.538 220.868C865.016 219.644 864.755 218.051 864.755 216.089C864.755 214.487 864.926 213.155 865.268 212.093C865.628 211.031 866.114 210.203 866.726 209.609C867.338 208.997 868.058 208.565 868.886 208.313C869.714 208.061 870.596 207.935 871.532 207.935C872.216 207.935 872.909 207.98 873.611 208.07C874.331 208.16 874.916 208.259 875.366 208.367L875.096 210.257C874.754 210.221 874.214 210.158 873.476 210.068C872.738 209.96 871.946 209.906 871.1 209.906C870.434 209.906 869.867 209.96 869.399 210.068C868.949 210.176 868.598 210.356 868.346 210.608C868.004 210.986 867.707 211.679 867.455 212.687C867.221 213.677 867.104 214.865 867.104 216.251C867.104 217.529 867.203 218.564 867.401 219.356C867.599 220.13 867.833 220.724 868.103 221.138C868.373 221.534 868.616 221.813 868.832 221.975C868.976 222.083 869.165 222.182 869.399 222.272C869.651 222.362 870.002 222.407 870.452 222.407C870.974 222.407 871.505 222.344 872.045 222.218C872.585 222.092 873.08 221.948 873.53 221.786C873.98 221.624 874.34 221.48 874.61 221.354C874.898 221.228 875.042 221.165 875.042 221.165L875.744 222.92C875.744 222.92 875.546 223.037 875.15 223.271C874.754 223.505 874.196 223.748 873.476 224C872.756 224.234 871.919 224.351 870.965 224.351ZM879.567 224V208.286H880.998L881.295 209.879H881.457C881.457 209.879 881.592 209.78 881.862 209.582C882.15 209.384 882.519 209.159 882.969 208.907C883.419 208.655 883.896 208.43 884.4 208.232C884.922 208.034 885.408 207.935 885.858 207.935C886.128 207.935 886.38 207.962 886.614 208.016C886.848 208.052 886.965 208.07 886.965 208.07L886.776 210.23C886.776 210.23 886.659 210.221 886.425 210.203C886.191 210.185 885.975 210.176 885.777 210.176C885.273 210.176 884.76 210.248 884.238 210.392C883.734 210.536 883.266 210.716 882.834 210.932C882.402 211.148 882.06 211.355 881.808 211.553V224H879.567ZM890.111 205.613V203.318H892.865V205.613H890.111ZM890.354 224V208.286H892.595V224H890.354ZM897.75 228.482V208.286H899.262L899.559 209.879H899.721C900.063 209.627 900.459 209.357 900.909 209.069C901.359 208.763 901.872 208.502 902.448 208.286C903.042 208.052 903.69 207.935 904.392 207.935C905.85 207.935 907.002 208.565 907.848 209.825C908.712 211.067 909.144 213.074 909.144 215.846C909.144 217.592 908.982 219.023 908.658 220.139C908.334 221.237 907.902 222.101 907.362 222.731C906.822 223.343 906.21 223.766 905.526 224C904.842 224.252 904.149 224.378 903.447 224.378C902.781 224.378 902.124 224.333 901.476 224.243C900.846 224.171 900.351 224.099 899.991 224.027V228.482H897.75ZM903.96 222.38C904.158 222.38 904.401 222.362 904.689 222.326C904.995 222.272 905.265 222.146 905.499 221.948C905.751 221.732 905.967 221.399 906.147 220.949C906.345 220.481 906.498 219.806 906.606 218.924C906.714 218.042 906.768 216.872 906.768 215.414C906.768 214.226 906.732 213.299 906.66 212.633C906.606 211.949 906.516 211.445 906.39 211.121C906.282 210.779 906.147 210.536 905.985 210.392C905.895 210.302 905.733 210.203 905.499 210.095C905.283 209.987 904.941 209.933 904.473 209.933C903.897 209.933 903.303 210.032 902.691 210.23C902.097 210.41 901.557 210.617 901.071 210.851C900.585 211.067 900.225 211.247 899.991 211.391V221.813C900.369 221.921 900.936 222.047 901.692 222.191C902.448 222.317 903.204 222.38 903.96 222.38ZM917.869 224.378C917.095 224.378 916.42 224.252 915.844 224C915.268 223.73 914.818 223.226 914.494 222.488C914.188 221.732 914.035 220.616 914.035 219.14V210.959H912.253V209.555L914.116 209.177L914.71 205.505H916.276V209.204H919.408V211.013H916.276V219.302C916.276 220.292 916.303 221.012 916.357 221.462C916.411 221.912 916.546 222.2 916.762 222.326C916.996 222.434 917.383 222.488 917.923 222.488C918.355 222.488 918.706 222.479 918.976 222.461C919.246 222.443 919.381 222.434 919.381 222.434V224.243C919.381 224.243 919.246 224.261 918.976 224.297C918.706 224.351 918.337 224.378 917.869 224.378Z" fill="#0E0F0F"/>
<path d="M799.835 272V253.235H802.103L802.022 261.443H809.906L809.852 253.235H812.12V272H809.852L809.906 263.441H802.022L802.103 272H799.835ZM820.221 272L820.275 255.152L815.01 255.233V253.235H827.7V255.233L822.435 255.152L822.489 272H820.221ZM830.444 272L831.092 253.235H834.386L838.625 265.466H838.814L843.08 253.235H846.374L847.022 272H844.754L844.538 255.503H844.349L840.11 267.599H837.329L833.117 255.503H832.928L832.712 272H830.444ZM852.569 272V253.235H854.837L854.702 270.056L861.479 270.002V272H852.569Z" fill="#0E0F0F"/>
<path d="M805.424 319.378C804.146 319.378 803.021 319.072 802.049 318.46C801.077 317.83 800.312 316.813 799.754 315.409C799.214 314.005 798.944 312.142 798.944 309.82C798.944 307.768 799.115 306.094 799.457 304.798C799.817 303.484 800.303 302.467 800.915 301.747C801.545 301.027 802.283 300.532 803.129 300.262C803.975 299.992 804.893 299.857 805.883 299.857C806.315 299.857 806.828 299.884 807.422 299.938C808.016 299.974 808.592 300.028 809.15 300.1C809.708 300.154 810.131 300.217 810.419 300.289L810.149 302.233C809.987 302.215 809.726 302.188 809.366 302.152C809.006 302.116 808.61 302.08 808.178 302.044C807.746 302.008 807.332 301.981 806.936 301.963C806.54 301.927 806.234 301.909 806.018 301.909C805.136 301.909 804.425 301.954 803.885 302.044C803.363 302.134 802.976 302.332 802.724 302.638C802.49 302.926 802.265 303.349 802.049 303.907C801.833 304.465 801.662 305.23 801.536 306.202C801.41 307.156 801.347 308.389 801.347 309.901C801.347 311.809 801.527 313.339 801.887 314.491C802.265 315.625 802.634 316.372 802.994 316.732C803.246 316.984 803.552 317.164 803.912 317.272C804.272 317.362 804.677 317.407 805.127 317.407C805.811 317.407 806.468 317.335 807.098 317.191C807.746 317.047 808.313 316.876 808.799 316.678C809.303 316.48 809.699 316.309 809.987 316.165C810.275 316.021 810.419 315.949 810.419 315.949L811.202 317.731C811.202 317.731 811.058 317.812 810.77 317.974C810.5 318.136 810.113 318.334 809.609 318.568C809.105 318.784 808.493 318.973 807.773 319.135C807.071 319.297 806.288 319.378 805.424 319.378ZM819.383 319.378C818.645 319.378 817.934 319.288 817.25 319.108C816.566 318.946 815.954 318.748 815.414 318.514C814.892 318.28 814.478 318.082 814.172 317.92C813.866 317.74 813.713 317.65 813.713 317.65C813.713 317.65 813.749 317.56 813.821 317.38C813.911 317.182 814.01 316.966 814.118 316.732C814.226 316.48 814.316 316.264 814.388 316.084C814.478 315.904 814.523 315.814 814.523 315.814C814.523 315.814 814.667 315.895 814.955 316.057C815.261 316.201 815.666 316.372 816.17 316.57C816.674 316.75 817.25 316.921 817.898 317.083C818.546 317.227 819.221 317.299 819.923 317.299C820.373 317.299 820.724 317.263 820.976 317.191C821.246 317.101 821.435 317.02 821.543 316.948C821.903 316.696 822.182 316.354 822.38 315.922C822.578 315.472 822.677 314.896 822.677 314.194C822.677 313.51 822.533 312.943 822.245 312.493C821.957 312.043 821.57 311.665 821.084 311.359C820.616 311.053 820.103 310.783 819.545 310.549C818.825 310.243 818.15 309.937 817.52 309.631C816.89 309.325 816.332 308.974 815.846 308.578C815.36 308.182 814.982 307.687 814.712 307.093C814.442 306.481 814.307 305.725 814.307 304.825C814.307 303.889 814.514 303.052 814.928 302.314C815.342 301.558 815.963 300.964 816.791 300.532C817.619 300.082 818.645 299.857 819.869 299.857C820.661 299.857 821.39 299.911 822.056 300.019C822.722 300.109 823.253 300.208 823.649 300.316C824.063 300.406 824.27 300.451 824.27 300.451L823.892 302.395C823.892 302.395 823.667 302.359 823.217 302.287C822.785 302.197 822.227 302.116 821.543 302.044C820.859 301.954 820.139 301.909 819.383 301.909C818.933 301.909 818.573 301.936 818.303 301.99C818.051 302.044 817.826 302.134 817.628 302.26C817.394 302.386 817.169 302.647 816.953 303.043C816.755 303.421 816.656 303.943 816.656 304.609C816.656 305.347 816.845 305.95 817.223 306.418C817.601 306.886 818.096 307.273 818.708 307.579C819.32 307.867 819.968 308.155 820.652 308.443C821.372 308.731 822.065 309.082 822.731 309.496C823.397 309.892 823.946 310.432 824.378 311.116C824.81 311.8 825.026 312.727 825.026 313.897C825.026 314.995 824.783 315.958 824.297 316.786C823.829 317.596 823.172 318.235 822.326 318.703C821.48 319.153 820.499 319.378 819.383 319.378ZM833.173 319.378C832.435 319.378 831.724 319.288 831.04 319.108C830.356 318.946 829.744 318.748 829.204 318.514C828.682 318.28 828.268 318.082 827.962 317.92C827.656 317.74 827.503 317.65 827.503 317.65C827.503 317.65 827.539 317.56 827.611 317.38C827.701 317.182 827.8 316.966 827.908 316.732C828.016 316.48 828.106 316.264 828.178 316.084C828.268 315.904 828.313 315.814 828.313 315.814C828.313 315.814 828.457 315.895 828.745 316.057C829.051 316.201 829.456 316.372 829.96 316.57C830.464 316.75 831.04 316.921 831.688 317.083C832.336 317.227 833.011 317.299 833.713 317.299C834.163 317.299 834.514 317.263 834.766 317.191C835.036 317.101 835.225 317.02 835.333 316.948C835.693 316.696 835.972 316.354 836.17 315.922C836.368 315.472 836.467 314.896 836.467 314.194C836.467 313.51 836.323 312.943 836.035 312.493C835.747 312.043 835.36 311.665 834.874 311.359C834.406 311.053 833.893 310.783 833.335 310.549C832.615 310.243 831.94 309.937 831.31 309.631C830.68 309.325 830.122 308.974 829.636 308.578C829.15 308.182 828.772 307.687 828.502 307.093C828.232 306.481 828.097 305.725 828.097 304.825C828.097 303.889 828.304 303.052 828.718 302.314C829.132 301.558 829.753 300.964 830.581 300.532C831.409 300.082 832.435 299.857 833.659 299.857C834.451 299.857 835.18 299.911 835.846 300.019C836.512 300.109 837.043 300.208 837.439 300.316C837.853 300.406 838.06 300.451 838.06 300.451L837.682 302.395C837.682 302.395 837.457 302.359 837.007 302.287C836.575 302.197 836.017 302.116 835.333 302.044C834.649 301.954 833.929 301.909 833.173 301.909C832.723 301.909 832.363 301.936 832.093 301.99C831.841 302.044 831.616 302.134 831.418 302.26C831.184 302.386 830.959 302.647 830.743 303.043C830.545 303.421 830.446 303.943 830.446 304.609C830.446 305.347 830.635 305.95 831.013 306.418C831.391 306.886 831.886 307.273 832.498 307.579C833.11 307.867 833.758 308.155 834.442 308.443C835.162 308.731 835.855 309.082 836.521 309.496C837.187 309.892 837.736 310.432 838.168 311.116C838.6 311.8 838.816 312.727 838.816 313.897C838.816 314.995 838.573 315.958 838.087 316.786C837.619 317.596 836.962 318.235 836.116 318.703C835.27 319.153 834.289 319.378 833.173 319.378Z" fill="#0E0F0F"/>
<line x1="637.005" y1="163.995" x2="637.678" y2="31.9949" stroke="black" stroke-width="2" stroke-linecap="round"/>
<line x1="665.008" y1="32" x2="639.006" y2="32" stroke="black" stroke-width="2" stroke-linecap="round"/>
<path d="M694.774 165L689 159.226L683.226 165L689 170.774L694.774 165ZM638 164C637.448 164 637 164.448 637 165C637 165.552 637.448 166 638 166V164ZM689 164H638V166H689V164Z" fill="black"/>
<path d="M735.774 215L730 209.226L724.226 215L730 220.774L735.774 215ZM679 214C678.448 214 678 214.448 678 215C678 215.552 678.448 216 679 216V214ZM730 214H679V216H730V214Z" fill="black"/>
<path d="M734.774 263L729 257.226L723.226 263L729 268.774L734.774 263ZM678 262C677.448 262 677 262.448 677 263C677 263.552 677.448 264 678 264V262ZM729 262H678V264H729V262Z" fill="black"/>
<path d="M734.774 310L729 304.226L723.226 310L729 315.774L734.774 310ZM678 309C677.448 309 677 309.448 677 310C677 310.552 677.448 311 678 311V309ZM729 309H678V311H729V309Z" fill="black"/>
<line x1="678" y1="164" x2="678" y2="310" stroke="black" stroke-width="2"/>
</svg>
